<svg width="229" height="43" viewBox="0 0 782 195" fill="none" xmlns="http://www.w3.org/2000/svg">
<g clip-path="url(#clip0_105_95)">
<path d="M26.2251 65.3358C36.1476 63.6288 46.0003 64.0221 55.7889 66.2563C56.5835 66.4398 57.0608 66.3204 57.48 65.4611C59.4621 61.383 61.9042 57.6137 65.3534 54.593C65.6444 54.3367 65.95 54.0979 66.2615 53.8648C69.9231 51.1383 72.4205 53.1599 73.8583 55.8747C75.7881 59.5187 76.5042 63.5327 77.2842 67.5263C78.498 73.7395 79.5895 79.9906 81.1467 86.1194C81.7812 88.607 83.3006 90.9606 84.7908 93.1103C86.9447 96.2242 92.2567 96.0232 95.1703 93.256C97.691 90.8528 98.992 87.6923 100.552 84.6891C104.441 77.2 109.261 70.448 116.354 65.6591C123.529 60.815 131.429 58.1439 140.178 58.7876C142.655 58.9682 145.088 59.7722 147.536 60.3111C148.034 60.4188 148.511 60.6169 149.283 60.5062C147.944 58.3565 146.71 56.1369 145.243 54.0687C140.875 47.856 135.114 42.7533 128.422 39.1692C122.515 36.0238 116.089 33.9703 109.453 33.1075C100.465 31.8899 91.5785 32.5249 82.8029 34.7562C76.085 36.4631 69.9813 39.5275 64.0581 43.0813C58.9441 46.1485 53.4429 48.2779 47.3246 48.1963C41.3839 48.1177 36.6803 45.0387 34.8844 39.8858C33.4756 35.8485 34.4711 32.0385 36.4591 28.441C40.1731 21.7239 46.1225 17.6196 52.8898 14.4911C73.6154 4.93827 97.1538 3.4551 118.913 10.331C140.672 17.2068 159.091 31.9485 170.577 51.6801C176.133 61.0753 179.904 71.4184 181.699 82.1869C183.978 95.9737 183.3 109.638 179.397 123.069C175.847 135.195 169.838 146.458 161.744 156.156C153.651 165.854 143.647 173.778 132.357 179.434C122.733 184.262 112.318 187.315 101.612 188.447C88.6097 189.836 75.9016 188.633 63.4643 184.607C54.9236 181.871 46.8432 177.864 39.4949 172.72C29.4092 165.69 20.8219 156.722 14.2332 146.338C7.06998 135.036 2.48858 122.801 0.800383 109.548C-1.11193 94.5522 0.360873 79.8566 5.71361 65.6358C7.25335 61.5578 8.84549 57.4797 11.535 53.9842C12.7699 52.3791 14.2015 50.9356 15.7962 49.6877C17.6299 48.2604 19.5189 48.5226 20.6541 50.4888C22.0753 53.0599 23.289 55.7405 24.2837 58.5051C25.1103 60.6956 25.579 63.0317 26.2251 65.3358ZM53.8475 85.5426C53.1105 85.5283 52.3781 85.6607 51.6927 85.932C51.0073 86.2033 50.3826 86.6081 49.8549 87.123C49.3271 87.6379 48.9068 88.2526 48.6183 88.9314C48.3299 89.6101 48.179 90.3395 48.1745 91.0771C48.1696 92.5675 48.7493 94.0002 49.7889 95.0673C50.8285 96.1345 52.2451 96.7507 53.7339 96.7835C56.6912 96.8505 59.3923 94.1997 59.4505 91.182C59.5087 88.1642 56.8949 85.5601 53.8358 85.5426H53.8475ZM29.3454 90.7858C29.3192 87.4768 26.9121 85.062 23.6783 85.1028C22.1869 85.1113 20.7599 85.7123 19.7113 86.7737C18.6627 87.8351 18.0784 89.27 18.0869 90.7625C18.0954 92.2551 18.696 93.6831 19.7566 94.7325C20.8172 95.7819 22.2509 96.3667 23.7423 96.3582C24.4808 96.3773 25.2155 96.2461 25.9018 95.9724C26.5881 95.6987 27.2116 95.2883 27.7345 94.7661C28.2574 94.2438 28.6688 93.6207 28.9437 92.9345C29.2187 92.2482 29.3513 91.5133 29.3337 90.7742L29.3454 90.7858Z" fill="black"/>
<path d="M53.8359 85.7669C56.895 85.7843 59.4943 88.3885 59.4389 91.4121C59.3836 94.4356 56.6796 97.0806 53.7224 97.0165C52.2333 96.9829 50.8167 96.3661 49.7772 95.2985C48.7376 94.2309 48.158 92.7978 48.163 91.3072C48.1671 90.5692 48.3177 89.8394 48.6059 89.1601C48.8942 88.4808 49.3143 87.8656 49.8421 87.3502C50.3699 86.8348 50.9947 86.4294 51.6803 86.1576C52.3659 85.8858 53.0986 85.753 53.8359 85.7669Z" fill="#05A171"/>
<path d="M29.3337 90.9984C29.3522 91.7389 29.2198 92.4754 28.9445 93.1629C28.6692 93.8505 28.2568 94.4747 27.7325 94.9975C27.2082 95.5203 26.583 95.9307 25.8949 96.2037C25.2069 96.4767 24.4705 96.6066 23.7307 96.5854C22.2609 96.5613 20.859 95.9623 19.8251 94.9166C18.7912 93.8708 18.2076 92.4615 18.1992 90.9904C18.1908 89.5194 18.7584 88.1035 19.7803 87.046C20.8022 85.9886 22.1972 85.3736 23.6666 85.3328C26.9004 85.2746 29.3075 87.6894 29.3337 90.9984Z" fill="#05A171"/>
</g>
<path d="M209.71 150V42.9H228.988V102.111H231.742L256.834 74.112H281.926L246.889 110.832L283.15 150H258.364L231.742 119.859H228.988V150H209.71ZM308.194 152.142C302.788 152.142 297.943 151.224 293.659 149.388C289.375 147.45 285.958 144.696 283.408 141.126C280.96 137.454 279.736 133.017 279.736 127.815C279.736 122.613 280.96 118.278 283.408 114.81C285.958 111.24 289.426 108.588 293.812 106.854C298.3 105.018 303.4 104.1 309.112 104.1H329.92V99.816C329.92 96.246 328.798 93.339 326.554 91.095C324.31 88.749 320.74 87.576 315.844 87.576C311.05 87.576 307.48 88.698 305.134 90.942C302.788 93.084 301.258 95.889 300.544 99.357L282.796 93.39C284.02 89.514 285.958 85.995 288.61 82.833C291.364 79.569 294.985 76.968 299.473 75.03C304.063 72.99 309.622 71.97 316.15 71.97C326.146 71.97 334.051 74.469 339.865 79.467C345.679 84.465 348.586 91.707 348.586 101.193V129.498C348.586 132.558 350.014 134.088 352.87 134.088H358.99V150H346.138C342.364 150 339.253 149.082 336.805 147.246C334.357 145.41 333.133 142.962 333.133 139.902V139.749H330.226C329.818 140.973 328.9 142.605 327.472 144.645C326.044 146.583 323.8 148.317 320.74 149.847C317.68 151.377 313.498 152.142 308.194 152.142ZM311.56 136.536C316.966 136.536 321.352 135.057 324.718 132.099C328.186 129.039 329.92 125.01 329.92 120.012V118.482H310.489C306.919 118.482 304.114 119.247 302.074 120.777C300.034 122.307 299.014 124.449 299.014 127.203C299.014 129.957 300.085 132.201 302.227 133.935C304.369 135.669 307.48 136.536 311.56 136.536ZM386.682 150C381.684 150 377.604 148.47 374.442 145.41C371.382 142.248 369.852 138.066 369.852 132.864V90.024H350.88V74.112H369.852V50.55H389.13V74.112H409.938V90.024H389.13V129.498C389.13 132.558 390.558 134.088 393.414 134.088H408.102V150H386.682ZM429.53 152.142C425.45 152.142 421.982 150.816 419.126 148.164C416.372 145.41 414.995 141.891 414.995 137.607C414.995 133.323 416.372 129.855 419.126 127.203C421.982 124.449 425.45 123.072 429.53 123.072C433.712 123.072 437.18 124.449 439.934 127.203C442.688 129.855 444.065 133.323 444.065 137.607C444.065 141.891 442.688 145.41 439.934 148.164C437.18 150.816 433.712 152.142 429.53 152.142ZM429.53 101.04C425.45 101.04 421.982 99.714 419.126 97.062C416.372 94.308 414.995 90.789 414.995 86.505C414.995 82.221 416.372 78.753 419.126 76.101C421.982 73.347 425.45 71.97 429.53 71.97C433.712 71.97 437.18 73.347 439.934 76.101C442.688 78.753 444.065 82.221 444.065 86.505C444.065 90.789 442.688 94.308 439.934 97.062C437.18 99.714 433.712 101.04 429.53 101.04ZM488.719 152.142C481.375 152.142 474.694 150.612 468.676 147.552C462.76 144.492 458.068 140.055 454.6 134.241C451.132 128.427 449.398 121.389 449.398 113.127V110.985C449.398 102.723 451.132 95.685 454.6 89.871C458.068 84.057 462.76 79.62 468.676 76.56C474.694 73.5 481.375 71.97 488.719 71.97C495.961 71.97 502.183 73.245 507.385 75.795C512.587 78.345 516.769 81.864 519.931 86.352C523.195 90.738 525.337 95.736 526.357 101.346L507.691 105.324C507.283 102.264 506.365 99.51 504.937 97.062C503.509 94.614 501.469 92.676 498.817 91.248C496.267 89.82 493.054 89.106 489.178 89.106C485.302 89.106 481.783 89.973 478.621 91.707C475.561 93.339 473.113 95.838 471.277 99.204C469.543 102.468 468.676 106.497 468.676 111.291V112.821C468.676 117.615 469.543 121.695 471.277 125.061C473.113 128.325 475.561 130.824 478.621 132.558C481.783 134.19 485.302 135.006 489.178 135.006C494.992 135.006 499.378 133.527 502.336 130.569C505.396 127.509 507.334 123.531 508.15 118.635L526.816 123.072C525.49 128.478 523.195 133.425 519.931 137.913C516.769 142.299 512.587 145.767 507.385 148.317C502.183 150.867 495.961 152.142 488.719 152.142ZM568.881 152.142C561.333 152.142 554.55 150.612 548.532 147.552C542.514 144.492 537.771 140.055 534.303 134.241C530.835 128.427 529.101 121.44 529.101 113.28V110.832C529.101 102.672 530.835 95.685 534.303 89.871C537.771 84.057 542.514 79.62 548.532 76.56C554.55 73.5 561.333 71.97 568.881 71.97C576.429 71.97 583.212 73.5 589.23 76.56C595.248 79.62 599.991 84.057 603.459 89.871C606.927 95.685 608.661 102.672 608.661 110.832V113.28C608.661 121.44 606.927 128.427 603.459 134.241C599.991 140.055 595.248 144.492 589.23 147.552C583.212 150.612 576.429 152.142 568.881 152.142ZM568.881 135.006C574.797 135.006 579.693 133.119 583.569 129.345C587.445 125.469 589.383 119.961 589.383 112.821V111.291C589.383 104.151 587.445 98.694 583.569 94.92C579.795 91.044 574.899 89.106 568.881 89.106C562.965 89.106 558.069 91.044 554.193 94.92C550.317 98.694 548.379 104.151 548.379 111.291V112.821C548.379 119.961 550.317 125.469 554.193 129.345C558.069 133.119 562.965 135.006 568.881 135.006ZM647.111 152.142C641.093 152.142 635.432 150.663 630.128 147.705C624.926 144.645 620.744 140.208 617.582 134.394C614.42 128.58 612.839 121.542 612.839 113.28V110.832C612.839 102.57 614.42 95.532 617.582 89.718C620.744 83.904 624.926 79.518 630.128 76.56C635.33 73.5 640.991 71.97 647.111 71.97C651.701 71.97 655.526 72.531 658.586 73.653C661.748 74.673 664.298 75.999 666.236 77.631C668.174 79.263 669.653 80.997 670.673 82.833H673.427V42.9H692.705V150H673.733V140.82H670.979C669.245 143.676 666.542 146.277 662.87 148.623C659.3 150.969 654.047 152.142 647.111 152.142ZM652.925 135.312C658.841 135.312 663.788 133.425 667.766 129.651C671.744 125.775 673.733 120.165 673.733 112.821V111.291C673.733 103.947 671.744 98.388 667.766 94.614C663.89 90.738 658.943 88.8 652.925 88.8C647.009 88.8 642.062 90.738 638.084 94.614C634.106 98.388 632.117 103.947 632.117 111.291V112.821C632.117 120.165 634.106 125.775 638.084 129.651C642.062 133.425 647.009 135.312 652.925 135.312ZM738.711 152.142C731.163 152.142 724.482 150.561 718.668 147.399C712.956 144.135 708.468 139.596 705.204 133.782C702.042 127.866 700.461 120.93 700.461 112.974V111.138C700.461 103.182 702.042 96.297 705.204 90.483C708.366 84.567 712.803 80.028 718.515 76.866C724.227 73.602 730.857 71.97 738.405 71.97C745.851 71.97 752.328 73.653 757.836 77.019C763.344 80.283 767.628 84.873 770.688 90.789C773.748 96.603 775.278 103.386 775.278 111.138V117.717H720.045C720.249 122.919 722.187 127.152 725.859 130.416C729.531 133.68 734.019 135.312 739.323 135.312C744.729 135.312 748.707 134.139 751.257 131.793C753.807 129.447 755.745 126.846 757.071 123.99L772.83 132.252C771.402 134.904 769.311 137.811 766.557 140.973C763.905 144.033 760.335 146.685 755.847 148.929C751.359 151.071 745.647 152.142 738.711 152.142ZM720.198 103.335H755.694C755.286 98.949 753.501 95.43 750.339 92.778C747.279 90.126 743.25 88.8 738.252 88.8C733.05 88.8 728.919 90.126 725.859 92.778C722.799 95.43 720.912 98.949 720.198 103.335Z" fill="white"/>
<defs>
<clipPath id="clip0_105_95">
<rect width="183" height="183" fill="white" transform="translate(0 6)"/>
</clipPath>
</defs>
</svg>
