<svg width="278" height="74" viewBox="0 0 278 74" fill="none" xmlns="http://www.w3.org/2000/svg">
<path d="M17.3049 67.4403L17.3048 67.4308C17.2448 61.1261 17.2523 54.8206 17.2598 48.5101C17.262 46.6739 17.2642 44.8373 17.2647 43.0002C17.9974 44.4302 18.7316 45.8598 19.4658 47.2894C22.4353 53.0712 25.4054 58.8544 28.2783 64.6789C28.7423 65.6218 29.3161 66.4576 30.2154 66.8833C31.1337 67.318 32.15 67.2151 33.227 66.8752C34.5577 66.4776 35.9348 66.2245 37.3303 66.1215L37.3382 66.1209L37.3461 66.1202C38.2446 66.0394 39.1076 65.8152 39.7119 65.1708C40.3225 64.5195 40.4734 63.6495 40.4734 62.7711V62.7705C40.4661 50.8786 40.5095 38.99 40.553 27.0978C40.569 22.7153 40.585 18.3323 40.5985 13.9485C40.6022 13.4899 40.5724 13.0147 40.5415 12.5227C40.5295 12.3322 40.5174 12.1391 40.507 11.9435L40.4468 10.8102L39.3301 11.0126C38.5021 11.1627 37.7074 11.3174 36.9331 11.4681C35.2188 11.8019 33.6049 12.1161 31.9519 12.3168L31.9517 12.3168C31.039 12.4278 30.2385 12.718 29.7361 13.417C29.2703 14.0651 29.221 14.8639 29.221 15.5239H29.2209L29.2211 15.5357C29.2988 22.1719 29.3343 28.8102 29.3697 35.4507C29.3778 36.9578 29.3858 38.465 29.3944 39.9724C25.3678 32.0391 21.3305 24.0676 17.2824 16.0576L16.9275 15.3553L16.1614 15.5351L3.77151 18.443L2.47905 18.7463L3.12734 19.9048C3.51284 20.5938 3.95735 21.252 4.45625 21.8733L4.48373 21.9075L4.51411 21.9392C5.90473 23.3899 6.17246 25.0765 6.17254 27.2561C6.14873 38.4008 6.19731 49.5431 6.24589 60.6833C6.25857 63.5899 6.27124 66.4963 6.28263 69.4025C6.28277 69.8277 6.32648 70.2921 6.36936 70.7476C6.38781 70.9436 6.40611 71.1379 6.42071 71.3268L6.50962 72.4767L7.63539 72.2257C8.40542 72.054 9.13747 71.8819 9.84547 71.7155C11.4545 71.3374 12.9393 70.9884 14.4631 70.739C15.3033 70.6043 16.0974 70.3417 16.6402 69.7032C17.1838 69.0637 17.3048 68.2473 17.3049 67.4403Z" fill="black" stroke="white" stroke-width="2"/>
<path d="M102.01 3.27762L103.547 3.18108C104.616 3.1139 105.658 3.04479 106.681 2.97696C109.021 2.82176 111.26 2.67326 113.496 2.56997L102.01 3.27762ZM102.01 3.27762L102.723 4.64244M102.01 3.27762L102.723 4.64244M102.723 4.64244C103.022 5.21314 103.303 5.73499 103.569 6.22675C104.155 7.31251 104.663 8.25163 105.094 9.24619L105.102 9.26399L105.11 9.28148C105.505 10.104 105.731 10.9841 105.777 11.8774C105.853 22.699 105.892 33.5228 105.93 44.3473C105.942 47.6821 105.954 51.017 105.967 54.3519L105.967 54.355C105.971 54.8628 106.007 55.3908 106.044 55.9396C106.061 56.1938 106.079 56.4526 106.094 56.7158L106.15 57.709L107.143 57.6582L116.19 57.1959L117.139 57.1474V56.1972V36.2041M102.723 4.64244L117.139 36.2041M117.139 36.2041H124.647V55.5222V56.5222H125.647H135.485H136.541L136.483 55.4681C136.412 54.1552 136.295 52.8383 136.181 51.5592C136.114 50.8076 136.049 50.0691 135.994 49.3521C135.844 47.38 135.77 45.4912 135.94 43.6401L135.94 43.6398C136.186 40.9593 136.058 38.4049 135.242 36.0466C134.42 33.6718 132.92 31.5573 130.522 29.7352C130.397 29.6394 130.335 29.5706 130.307 29.5332C130.317 29.5121 130.332 29.4812 130.358 29.4394C130.422 29.3353 130.526 29.2021 130.686 29.0312C132.141 27.4769 133.554 25.8634 134.882 24.2003C135.475 23.471 135.832 22.5885 135.897 21.6596L135.899 21.6319L135.899 21.6041C135.911 20.7846 135.965 19.9443 136.025 19.076C136.03 18.9938 136.036 18.9113 136.042 18.8285C136.096 18.0456 136.151 17.24 136.177 16.4416C136.234 14.6807 136.152 12.8516 135.548 11.1343C134.993 9.54507 133.859 8.19935 132.696 7.00929C132.211 6.51332 131.736 6.0563 131.274 5.6123C130.574 4.93991 129.906 4.29738 129.284 3.59461C129.276 3.58201 129.267 3.56891 129.26 3.55892C129.235 3.52123 129.163 3.41699 129.045 3.31787C128.963 3.24926 128.841 3.16837 128.683 3.11767C128.492 3.03623 128.33 2.95146 128.139 2.85208C127.988 2.77335 127.82 2.68545 127.605 2.58275C127.183 2.38003 126.614 2.14355 125.982 2.14355V2.14348L125.97 2.14363C121.803 2.19471 117.64 2.37576 113.496 2.56994L117.139 36.2041ZM117.35 23.5487V15.114H124.467V23.2311L117.35 23.5487Z" fill="black" stroke="white" stroke-width="2"/>
<path d="M168.34 46.3925L168.338 46.4141C168.271 47.5362 167.838 48.6037 167.108 49.4769L168.34 46.3925ZM168.34 46.3925L168.34 46.3709M168.34 46.3925L168.34 46.3709M138.363 38.3138C138.365 39.0212 138.327 39.7515 138.281 40.5119C138.275 40.6133 138.269 40.7155 138.263 40.8181C138.223 41.4751 138.182 42.1543 138.165 42.825C138.128 44.371 138.218 45.9985 138.82 47.5027L138.82 47.5034C139.433 49.0318 140.513 50.3446 141.626 51.525C142.101 52.0276 142.564 52.4907 143.015 52.9417C143.681 53.6081 144.321 54.248 144.93 54.9494L138.363 38.3138ZM138.363 38.3138C138.333 29.8401 138.308 21.357 138.363 12.8774M138.363 38.3138L138.363 12.8774M168.34 46.3709C168.408 42.2313 168.399 38.0888 168.391 33.9569C168.389 32.916 168.387 31.8758 168.386 30.8365H168.525V29.8365C168.525 28.4638 168.528 27.0895 168.53 25.7141C168.536 21.5812 168.543 17.4387 168.49 13.3011L168.49 13.2934L168.49 13.2856C168.46 12.2313 168.095 11.2163 167.452 10.3665L167.444 10.3557L167.435 10.3451C165.546 7.98428 163.572 5.69031 161.514 3.46321L161.503 3.45137L161.492 3.4399C160.76 2.69695 159.77 2.2436 158.719 2.14741L158.69 2.14476L158.661 2.14379C155.176 2.02796 151.668 1.95801 148.165 2.02787L148.137 2.02841L148.11 2.03047C147.001 2.11371 145.95 2.57169 145.162 3.3362L145.151 3.34704L145.14 3.35823C143.205 5.35598 141.353 7.42593 139.587 9.60521L139.582 9.61091L139.578 9.61669C138.845 10.5483 138.419 11.6681 138.364 12.8372L138.363 12.8573M168.34 46.3709L138.363 12.8573M138.363 12.8573L138.363 12.8774M138.363 12.8573L138.363 12.8774M154.729 44.4161V44.416H154.72H154.708H154.697H154.685H154.673H154.662H154.65H154.638H154.626H154.615H154.603H154.591H154.58H154.568H154.556H154.545H154.533H154.521H154.51H154.498H154.486H154.474H154.463H154.451H154.439H154.428H154.416H154.404H154.393H154.381H154.369H154.357H154.346H154.334H154.322H154.311H154.299H154.287H154.276H154.264H154.252H154.24H154.229H154.217H154.205H154.194H154.182H154.17H154.159H154.147H154.135H154.123H154.112H154.1H154.088H154.077H154.065H154.053H154.042H154.03H154.018H154.007H153.995H153.983H153.971H153.96H153.948H153.936H153.925H153.913H153.901H153.889H153.878H153.866H153.854H153.843H153.831H153.819H153.808H153.796H153.784H153.772H153.761H153.749H153.737H153.726H153.714H153.702H153.691H153.679H153.667H153.655H153.644H153.632H153.62H153.609H153.597H153.585H153.573H153.562H153.55H153.538H153.527H153.515H153.503H153.492H153.48H153.468H153.456H153.445H153.433H153.421H153.41H153.398H153.386H153.374H153.363H153.351H153.339H153.328H153.316H153.304H153.292H153.281H153.269H153.257H153.246H153.234H153.222H153.21H153.199H153.187H153.175H153.163H153.152H153.14H153.128H153.117H153.105H153.093H153.081H153.07H153.058H153.046H153.035H153.023H153.011H152.999H152.988H152.976H152.964H152.952H152.941H152.929H152.917H152.905H152.894H152.882H152.87H152.859H152.847H152.835H152.823H152.812H152.8H152.788H152.776H152.765H152.753H152.741H152.729H152.718H152.706H152.694H152.682H152.671H152.659H152.647H152.636H152.624H152.612H152.6H152.589H152.577H152.565H152.553H152.542H152.53H152.518H152.506H152.495H152.483H152.471H152.459H152.447H152.436H152.424H152.412H152.4H152.389H152.377H152.365H152.353H152.342H152.33H152.318H152.306H152.295H152.283H152.271H152.259H152.248H152.236H152.224H152.212H152.2H152.189H152.177H152.165H152.153H152.142H152.13H152.118H152.106H152.094H152.083H152.071H152.059H152.047H152.036H152.024H152.012H152H151.988H151.977H151.965H151.953H151.941H151.929H151.918H151.906H151.894H151.882H151.87H151.859H151.847H151.835H151.823H151.811H151.8H151.788H151.776H151.764H151.752H151.741H151.729H151.717H151.705H151.693H151.682H151.67H151.658H151.646H151.634H151.623H151.611H151.599H151.587H151.575H151.563H151.552H151.54H151.528H151.516H151.504H151.492H151.481H151.469H151.457H151.445H151.433H151.422H151.41H151.398H151.386H151.374H151.362H151.35H151.339H151.327H151.315H151.303H151.291H151.279H151.268H151.256H151.244H151.232H151.22H151.208H151.196H151.185H151.173H151.161H151.149H151.137H151.125H151.113H151.102H151.09H151.078H151.066H151.054H151.042H151.03H151.018H151.007H150.995H150.983H150.971H150.959H150.947H150.935H150.923H150.912H150.9H150.888H150.876H150.864H150.852H150.84H150.828H150.816H150.805H150.793H150.781H150.769H150.757H150.745H150.733H150.721H150.709H150.697H150.686H150.674H150.662H150.65H150.638H150.626H150.614H150.602H150.59H150.578H150.566H150.554H150.543H150.531H150.519H150.507H150.495H150.483H150.471H150.459H150.447H150.435H150.423H150.411H150.399H150.387H150.375H150.363H150.352H150.34H150.328H150.316H150.304H150.292H150.28H150.268H150.256H150.244H150.232H150.22H150.208H150.196H150.184H150.172H150.16H150.148H150.136H150.124H150.112H150.1H150.088H150.076H150.064H150.052H150.04H150.028H150.016H150.004H149.992H149.98H149.968H149.956H149.944H149.932H149.92H149.908H149.896H149.884H149.872H149.86H149.848H149.836H149.824H149.812H149.8H149.788H149.776H149.764H149.752H149.74H149.728H149.716H149.704H149.692H149.68H149.668H149.656H149.65V14.7623H156.856C156.857 14.7637 156.857 14.7652 156.857 14.7666C156.89 15.0131 156.908 15.1905 156.908 15.3526H156.908L156.908 15.3626C156.998 24.3943 157.066 33.423 157.113 42.4486C157.114 42.7009 157.116 42.9253 157.118 43.1262C157.123 43.6546 157.126 44.0209 157.106 44.3062C157.102 44.3588 157.098 44.4027 157.093 44.4391C157.024 44.4456 156.923 44.4518 156.783 44.4535C156.532 44.4566 156.263 44.4492 155.93 44.44C155.605 44.431 155.22 44.4204 154.729 44.4161Z" fill="black" stroke="white" stroke-width="2"/>
<path d="M82.9823 6.03284V4.90769L81.8649 5.03975L69.2698 6.52836L67.8109 6.70079L68.5064 7.99483C68.8782 8.68677 69.3073 9.35017 69.7896 9.97912L69.82 10.0188L69.8543 10.0553C71.323 11.6189 71.5846 13.4297 71.5848 15.7439C71.5725 18.9863 71.6349 22.2052 71.697 25.4102C71.8133 31.4077 71.9287 37.3564 71.5517 43.319L71.5517 43.3195C71.3542 46.4667 71.73 49.2914 72.8413 51.8341C73.953 54.378 75.7724 56.5741 78.3621 58.5076C79.2974 59.2398 80.4596 59.6556 81.6636 59.702L81.7039 59.7036L81.7442 59.7019C83.3125 59.6358 84.8698 59.4862 86.4003 59.3332C86.5273 59.3205 86.6542 59.3077 86.7809 59.295C88.1827 59.1544 89.5609 59.0161 90.9418 58.9346C91.8452 58.9098 92.7316 58.6768 93.5206 58.2522C94.3061 57.8297 94.974 57.2286 95.458 56.4965C96.2045 55.4874 97.0213 54.5162 97.8623 53.52L97.9348 53.434C98.7509 52.4674 99.5885 51.4753 100.363 50.4397C101.084 49.4993 101.505 48.3795 101.566 47.2114L101.567 47.189L101.567 47.1665C101.651 35.8091 101.679 24.4515 101.706 13.0995C101.712 10.9696 101.717 8.83989 101.722 6.7104V6.7078V6.7039V6.7V6.6961V6.6922V6.6883V6.6844V6.6805V6.67659V6.67269V6.66879V6.66489V6.66099V6.65709V6.65319V6.64929V6.64539V6.64149V6.63759V6.63369V6.62979V6.62589V6.62199V6.61809V6.61419V6.61029V6.60638V6.60248V6.59858V6.59468V6.59078V6.58687V6.58297V6.57907V6.57517V6.57126V6.56736V6.56345V6.55955V6.55565V6.55174V6.54784V6.54393V6.54002V6.53612V6.53221V6.5283V6.5244V6.52049V6.51658V6.51267V6.50876V6.50485V6.50094V6.49703V6.49312V6.48921V6.4853V6.48139V6.47747V6.47356V6.46965V6.46573V6.46182V6.4579V6.45399V6.45007V6.44615V6.44223V6.43832V6.4344V6.43048V6.42656V6.42263V6.41871V6.41479V6.41087V6.40694V6.40302V6.39909V6.39517V6.39124V6.38731V6.38338V6.37945V6.37552V6.37159V6.36766V6.36373V6.35979V6.35586V6.35193V6.34799V6.34405V6.34012V6.33618V6.33224V6.3283V6.32436V6.32041V6.31647V6.31253V6.30858V6.30463V6.30069V6.29674V6.29279V6.28884V6.28489V6.28093V6.27698V6.27303V6.26907V6.26511V6.26116V6.2572V6.25324V6.24928V6.24531V6.24135V6.23738V6.23342V6.22945V6.22548V6.22151V6.21754V6.21357V6.2096V6.20562V6.20165V6.19767V6.19369V6.18971V6.18573V6.18175V6.17777V6.17378V6.16979V6.16581V6.16182V6.15783V6.15384V6.14984V6.14585V6.14185V6.13785V6.13385V6.12985V6.12585V6.12185V6.11784V6.11384V6.10983V6.10582V6.10181V6.0978V6.09378V6.08977V6.08575V6.08173V6.07771V6.07369V6.06966V6.06564V6.06161V6.05758V6.05355V6.04952V6.04549V6.04145V6.03741V6.03338V6.02933V6.02529V6.02125V6.0172V6.01316V6.00911V6.00505V6.001V5.99695V5.99289V5.98883V5.98477V5.98071V5.97665V5.97258V5.96851V5.96444V5.96037V5.9563V5.95222V5.94814V5.94406V5.93998V5.9359V5.93181V5.92773V5.92364V5.91955V5.91545V5.91136V5.90726V5.90316V5.89906V5.89495V5.89085V5.88674V5.88263V5.87852V5.8744V5.87029V5.86617V5.86205V5.85793V5.8538V5.84967V5.84554V5.84141V5.83728V5.83314V5.829V5.82486V5.82072V5.81657V5.81243V5.80828V5.80412V5.79997V5.79581V5.79165V5.78749V5.78333V5.77916V5.77499V5.77082V5.76665V5.76247V5.75829V5.75411V5.74993V5.74574V5.74155V5.73736V5.73317V5.72897V5.72477V5.72057V5.71637V5.71216V5.70795V5.70374V5.69953V5.69531V5.69109V5.68687V5.68265V5.67842V5.67419V5.66996V5.66572V5.66148V5.65724V5.653V5.64875V5.64451V5.64025V5.636V5.63174V5.62748V5.62322V5.61896V5.61469V5.61042V5.60614V5.60187V5.59759V5.59331V5.58902V5.58473V5.58044V5.57615V5.57185V5.56755V5.56325V5.55894V5.55464V5.55032V5.54601V5.54169V5.53737V5.53305V5.52872V5.52439V5.52006V5.51572V5.51139V5.50704V5.5027V5.49835V5.494V5.48965V5.48529V5.48093V5.47657V5.4722V5.46783V5.46346V5.45908V5.4547V5.45032V5.44593V5.44154V5.43715V5.43276V5.42836V5.42395V5.41955V5.41514V5.41073V5.40631V5.40189V5.39747V5.39305V5.38862V5.38419V5.37975V5.37531V5.37087V5.36642V5.36197V5.35752V5.35307V5.34861V5.34414V5.33968V5.33521V5.33073V5.32626V5.32178V5.31729V5.3128V5.30831V5.30382V5.29932V5.29482V5.29031V5.2858V5.28129V5.27677V5.27225V5.26773V5.2632V5.25867V5.25414V5.2496V5.24506V5.24051V5.23596V5.23141V5.22685V5.22229V5.21773V5.21316V5.20858V5.20401V5.19943V5.19485V5.19026V5.18567V5.18107V5.17647V5.17187V5.16726V5.16265V5.15804V5.15342V5.1488V5.14417V5.13954V5.1349V5.13027V5.12562V5.12098V5.11633V5.11167V5.10701V5.10235V5.09769V5.09301V5.08834V5.08366V5.07898V5.07429V5.0696V5.06491V5.06021V5.0555V5.0508V5.04608V5.04137V5.03665V5.03192V5.02719V5.02246V5.01772V5.01298V5.00824V5.00349V4.99873V4.99398V4.98921V4.98445V4.97967V4.9749V4.97012V4.96533V4.96055V4.95575V4.95096V4.94615V4.94135V4.93654V4.93172V4.9269V4.92208V4.91725V4.91242V4.90758V4.90274V4.89789V4.89304V4.88818V4.88332V4.87846V4.87359V4.86872V4.86384V4.85896V4.85407V4.84918V4.84428V4.83938V4.83447V4.82956V4.82465V4.81973V4.8148V4.80987V4.80494V4.8V4.79506V4.79011V4.78515V4.7802V4.77523V4.77027V4.7653V4.76032V4.75534V4.75035V4.74536V4.74036V4.73536V4.73036V4.72534V4.72033V4.71531V4.71028V4.70525V4.70022V4.69518V4.69013V4.68508V4.68003V4.67496V4.6699V4.66483V4.65975V4.65467V4.64959V4.6445V4.6394V4.6343V4.6292V4.62409V4.61897V4.61385V4.60872V4.60359V4.59846V4.59331V4.58817V4.58302V4.57786V4.5727V4.56753V4.56236V4.55718V4.55199V4.54681V4.54161V4.53641V4.53121V4.526V4.52078V4.51556V4.51034V4.50511V4.49987V4.49463V4.48938V4.48413V3.41664L100.657 3.48626C99.7673 3.54441 98.9234 3.61433 98.1077 3.6819C96.453 3.81899 94.9146 3.94643 93.3464 3.94643V3.9464L93.338 3.94647C92.484 3.95366 91.5952 4.06962 90.9656 4.66999C90.3182 5.28724 90.1997 6.16678 90.1996 6.98518L90.1997 6.9914C90.2357 12.7791 90.2393 18.5618 90.2429 24.3486C90.2453 28.2088 90.2477 32.0708 90.2597 35.9376C90.2641 37.3955 90.2956 38.8159 90.3269 40.2252C90.369 42.1226 90.4107 44 90.3851 45.9219C90.3835 45.9282 90.3764 45.9627 90.3497 46.0271C90.3123 46.117 90.2541 46.2225 90.1823 46.3235C90.1181 46.4139 90.0571 46.481 90.0117 46.5225C88.068 46.7859 86.1124 46.9401 84.0513 47.1026C83.6982 47.1305 83.342 47.1586 82.9823 47.1875V6.03284Z" fill="black" stroke="white" stroke-width="2"/>
<path d="M275.995 35.2465L275.019 35.0235C274.363 34.8736 273.702 34.7259 273.039 34.5778C270.928 34.106 268.791 33.6286 266.691 33.0529L266.69 33.0527C266.315 32.9494 266.053 32.7071 265.897 32.5261C265.728 32.3316 265.596 32.1099 265.495 31.9019C265.298 31.4976 265.151 30.999 265.131 30.5571L265.131 30.5567L265.129 30.5093C265.086 29.5591 265.058 28.9225 264.986 28.4461C264.915 27.9737 264.821 27.8128 264.751 27.7335C264.678 27.6493 264.515 27.5234 264.025 27.37C263.53 27.2151 262.85 27.0741 261.843 26.8691C260.751 26.6492 259.66 26.4603 258.511 26.2611C258.414 26.2442 258.316 26.2273 258.217 26.2102V35.2444C258.771 35.364 259.33 35.483 259.891 35.6026C262.136 36.0811 264.429 36.5697 266.683 37.1482L266.699 37.1523L266.715 37.1568C267.813 37.4768 268.798 38.0881 269.544 38.9272L269.551 38.9349L269.551 38.935C270.231 39.7167 270.859 40.5478 271.463 41.3464C271.55 41.4616 271.636 41.5761 271.722 41.6898C272.414 42.6021 273.085 43.4658 273.828 44.2444C274.749 45.1805 275.455 46.2871 275.897 47.497C276.339 48.7046 276.507 49.9858 276.389 51.2593C276.287 52.8801 276.287 54.5145 276.302 56.1781C276.304 56.4533 276.307 56.7296 276.31 57.0068C276.325 58.3999 276.34 59.8152 276.302 61.2265L276.301 61.2305C276.27 62.2449 275.878 63.2107 275.203 63.9807L275.185 64.0014L275.166 64.0209C273.396 65.8294 271.522 67.5602 269.596 69.2044L269.572 69.225L269.546 69.2441C269.151 69.5405 268.699 69.7571 268.219 69.8845C267.738 70.0119 267.237 70.0483 266.742 69.9922L266.708 69.9883L266.675 69.9822C263.178 69.341 259.706 68.6084 256.259 67.7845L256.235 67.7788L256.212 67.7719C255.226 67.4842 254.349 66.914 253.713 66.1278L253.708 66.1217L253.708 66.1217C251.881 63.827 250.064 61.4663 248.434 59.0222L248.426 59.0095L248.418 58.9965C247.663 57.7864 247.192 56.4372 247.041 55.0382C246.895 53.7942 246.927 52.4901 246.958 51.1962C246.972 50.6531 246.985 50.1117 246.985 49.5773V48.3554L248.183 48.597L257.19 50.4139L257.948 50.5668L257.991 51.3387C257.999 51.4804 258.007 51.616 258.015 51.7461C258.035 52.0828 258.053 52.3826 258.057 52.6557L275.995 35.2465ZM275.995 35.2465L276.217 34.2702M275.995 35.2465L276.217 34.2702M276.217 34.2702C276.726 32.0321 276.84 30.0799 276.489 28.2306C276.137 26.3772 275.331 24.6987 274.102 22.9894L274.102 22.9893L274.099 22.9849C273.716 22.4574 273.333 21.9156 272.945 21.368C271.973 19.9935 270.974 18.582 269.881 17.2662L269.88 17.2642C269.081 16.307 267.995 15.6073 266.774 15.2451L266.753 15.2386L266.73 15.2332C263.473 14.426 260.175 13.7692 256.867 13.2157L256.846 13.2123L256.826 13.2097C256.27 13.1406 255.705 13.1781 255.164 13.3205C254.624 13.4629 254.116 13.7081 253.674 14.0444L253.646 14.0661L253.619 14.0898C253.105 14.5427 252.555 14.9891 251.982 15.4535L251.942 15.4858C251.361 15.9567 250.759 16.4459 250.188 16.9534C249.054 17.96 247.958 19.1097 247.31 20.4948C246.679 21.8381 246.612 23.3399 246.66 24.7279C246.68 25.2712 246.718 25.8266 246.756 26.3616C246.766 26.5137 246.777 26.6643 246.787 26.8124C246.833 27.4945 246.867 28.1416 246.855 28.7595L246.854 28.8011L246.857 28.8426C246.873 29.0926 246.874 29.3433 246.86 29.5933C246.113 34.3132 247.992 37.9694 251.144 41.4258L251.146 41.4279M276.217 34.2702L251.146 41.4279M265.32 57.153C264.594 57.0167 263.922 56.8892 263.275 56.7662C262.706 56.6578 262.154 56.553 261.6 56.449C260.506 56.2418 259.757 56.0992 259.209 55.94C258.659 55.7806 258.47 55.6454 258.385 55.5525C258.312 55.4739 258.214 55.316 258.15 54.8353C258.084 54.3393 258.073 53.6684 258.057 52.6558L265.32 57.153ZM265.32 57.153V52.1616V52.1254C265.32 50.7904 265.32 49.8582 265.242 49.1524C265.165 48.4495 265.024 48.1363 264.864 47.9485C264.701 47.7576 264.396 47.5539 263.67 47.348C262.941 47.1413 261.937 46.9709 260.497 46.7468L265.32 57.153ZM251.146 41.4279C253.723 44.2377 256.403 46.1106 260.496 46.7468L251.146 41.4279Z" fill="black" stroke="white" stroke-width="2"/>
<path d="M52.6558 51.0418C52.6588 50.3752 52.6638 49.7148 52.6689 49.0594C52.6843 47.0333 52.6994 45.0553 52.6528 43.0901L52.6528 43.0899C52.6412 42.6084 52.7443 42.5124 52.7583 42.4993L52.7591 42.4986C52.8113 42.4485 52.9979 42.3288 53.6084 42.2582C55.5372 42.0407 57.4664 41.7428 59.4488 41.4367C60.2712 41.3097 61.1028 41.1813 61.9472 41.0566L63.1888 40.8733L62.7328 39.704C62.199 38.3352 61.7448 36.9978 61.2887 35.655C61.2296 35.4807 61.1703 35.3064 61.1109 35.1318C60.5964 33.6208 60.0678 32.1017 59.4217 30.5787C59.4217 30.5787 59.4217 30.5787 59.4217 30.5787L52.6558 51.0418ZM52.6558 51.0418L66.1287 49.1918L67.2647 49.0358V50.1825V60.4687V61.33L66.413 61.4576L42.724 65.0081L41.5758 65.1802V64.0191V62.042C41.5644 58.3519 41.5542 54.6597 41.5441 50.9661C41.5099 38.4622 41.4756 25.9427 41.3906 13.4363L41.3906 13.4296H41.3906C41.3906 12.6368 41.4752 11.7807 42.0455 11.1218C42.6139 10.4651 43.4712 10.2256 44.386 10.0997L44.3878 10.0994C49.063 9.46469 53.7196 8.73495 58.3876 8.00343C60.5095 7.67092 62.6337 7.33805 64.763 7.01356L64.8049 7.00716L64.8473 7.00435C65.4312 6.96551 66.0174 6.96551 66.6013 7.00435L67.5349 7.06645V8.00214C67.5349 8.75531 67.5383 9.50974 67.5416 10.265C67.5524 12.7252 67.5633 15.1941 67.4595 17.6565C67.4478 18.1534 67.1408 18.4984 66.9982 18.6428C66.8109 18.8325 66.5845 18.9928 66.3723 19.12C65.9574 19.3688 65.4178 19.5965 64.9428 19.6732L64.9407 19.6735C61.5633 20.2108 58.1715 20.6832 54.7322 21.1622C54.154 21.2428 53.5744 21.3235 52.9933 21.4048V29.8044C53.0999 29.7875 53.2059 29.7706 53.3114 29.7538C54.4401 29.5739 55.5126 29.403 56.5671 29.3291L52.6558 51.0418ZM42.3906 13.4296C42.3906 11.8993 42.7759 11.3307 44.5223 11.0903C49.2078 10.4542 53.8815 9.7218 58.5547 8.98948C60.6741 8.65736 62.7934 8.32525 64.9137 8.00214C65.4534 7.96624 65.9952 7.96624 66.5349 8.00214L42.3906 13.4296Z" fill="black" stroke="white" stroke-width="2"/>
<path d="M234.686 47.5009V51.5197C234.204 51.4447 233.727 51.3686 233.254 51.2932C231.549 51.0213 229.895 50.7574 228.247 50.5795L228.247 50.5795L228.234 50.5783C227.507 50.5091 227.345 50.3425 227.304 50.2905C227.236 50.2051 227.139 49.9824 227.138 49.3011C227.229 42.4765 227.27 35.6479 227.311 28.8248C227.326 26.3101 227.341 23.7961 227.358 21.2833C227.36 21.1149 227.372 20.9581 227.39 20.7809L234.507 21.8768C234.505 21.9835 234.503 22.0902 234.501 22.1971C234.484 23.1944 234.466 24.1994 234.56 25.1627L234.56 25.1627L234.561 25.1699C234.608 25.6187 234.819 26.0804 235.047 26.4241C235.167 26.6061 235.318 26.794 235.498 26.9546C235.666 27.1053 235.928 27.2922 236.27 27.3626L236.271 27.3628C238.381 27.7935 240.516 28.145 242.749 28.5124C243.416 28.6222 244.091 28.7334 244.777 28.8486L245.987 29.0515L245.942 27.826C245.913 27.0307 245.937 26.2424 245.961 25.4268C245.965 25.2971 245.969 25.1667 245.973 25.0355C245.999 24.0962 246.016 23.1198 245.926 22.1538C245.742 20.1793 245.109 18.2216 243.251 16.4545C242.496 15.7341 241.857 14.8879 241.195 13.9608C241.086 13.8072 240.975 13.6508 240.863 13.4924C240.314 12.716 239.731 11.8918 239.075 11.1309L239.074 11.1291C238.364 10.3092 237.393 9.74054 236.318 9.4956L236.298 9.491L236.278 9.48724C232.751 8.83567 229.23 8.31996 225.718 7.85652L225.666 7.84961L225.613 7.84825C225.123 7.83561 224.633 7.91338 224.171 8.07846C223.71 8.24357 223.284 8.4937 222.921 8.81783L222.921 8.81781L222.916 8.82209C220.974 10.5748 219.129 12.4181 217.389 14.3448L217.389 14.3448L217.384 14.3506C216.542 15.2978 216.042 16.481 215.972 17.7285L215.971 17.7551L215.971 17.7818C215.944 28.7357 215.976 39.6896 216.066 50.6435L216.066 50.6512L216.066 50.6589C216.091 51.7108 216.439 52.7276 217.059 53.5907L217.066 53.6L217.073 53.6091C219.003 56.1673 220.975 58.6722 223.028 61.1324L223.036 61.141L223.043 61.1493C223.681 61.8802 224.556 62.3784 225.518 62.5798L225.534 62.5833L225.551 62.5862C228.986 63.1848 232.439 63.7151 235.916 64.1155L235.947 64.119L235.978 64.1207C237.093 64.1792 238.199 63.8355 239.063 63.1446L239.077 63.1333L239.09 63.1216C241.044 61.4396 242.832 59.6317 244.575 57.8364L244.575 57.8365L244.58 57.8307C245.198 57.1836 245.592 56.3634 245.691 55.4811L245.695 55.4534L245.696 55.4256C245.796 53.6604 245.796 51.8915 245.696 50.1263C245.676 49.7054 245.514 49.2601 245.331 48.9251C245.234 48.7476 245.107 48.5569 244.949 48.3903C244.808 48.2414 244.549 48.0137 244.175 47.9362L244.168 47.9349C242.159 47.5341 240.127 47.2065 237.983 46.861C237.284 46.7483 236.574 46.6338 235.848 46.5142L234.686 46.3225V47.5009Z" fill="black" stroke="white" stroke-width="2"/>
<path d="M169.518 2.45902L170.584 2.52901C172.077 2.62707 173.559 2.72389 175.033 2.82017C179.881 3.13682 184.64 3.44764 189.392 3.77745L169.518 2.45902ZM169.518 2.45902V3.52686M169.518 2.45902V3.52686M169.518 3.52686V14.169V15.1031L170.45 15.1667L178.941 15.7457L169.518 3.52686Z" fill="black" stroke="white" stroke-width="2"/>
<path d="M214.798 61.1155L213.758 60.9952C213.097 60.9187 212.441 60.8447 211.79 60.7713C209.707 60.5364 207.675 60.3071 205.655 60.0163L214.798 61.1155ZM214.798 61.1155L214.871 60.0713M214.798 61.1155L214.871 60.0713M214.871 60.0713C214.886 59.8457 214.905 59.6274 214.923 59.4154C214.962 58.9583 214.998 58.5304 214.998 58.1216C214.998 58.1212 214.998 58.1207 214.998 58.1203L215.058 33.6208L215.118 9.11882V9.11637C215.118 9.08608 215.121 9.04265 215.128 8.96322C215.129 8.95169 215.131 8.9386 215.132 8.92427C215.138 8.85811 215.147 8.76564 215.152 8.67883C215.162 8.48932 215.175 8.07928 214.947 7.68822L214.947 7.68819L214.942 7.67843C214.829 7.49078 214.652 7.20864 214.434 6.95778C214.255 6.75285 213.866 6.34966 213.297 6.27553L213.293 6.27512C210.44 5.9131 207.585 5.59612 204.546 5.25882C203.578 5.15136 202.591 5.04184 201.58 4.92814L199.703 4.71703L200.584 6.3882C201.005 7.18664 201.468 7.96481 201.973 8.7198L201.988 8.74268L202.005 8.76468C203.339 10.5406 203.676 12.4777 203.676 14.8112C203.661 25.2194 203.722 35.6115 203.784 46.002C203.805 49.6852 203.827 53.3683 203.846 57.0517C203.778 57.48 203.805 57.9168 203.924 58.3347L203.958 58.4523M214.871 60.0713L203.958 58.4523M203.958 58.4523L204.019 58.5584M203.958 58.4523L204.019 58.5584M204.019 58.5584C204.131 58.7531 204.305 59.045 204.519 59.3033M204.019 58.5584L204.519 59.3033M204.519 59.3033C204.694 59.5132 205.077 59.9332 205.654 60.0162L204.519 59.3033Z" fill="black" stroke="white" stroke-width="2"/>
</svg>
