<svg width="268" height="306" viewBox="0 0 268 306" fill="none" xmlns="http://www.w3.org/2000/svg">
<path d="M74.2542 28.4482C74.2542 18.7114 82.878 11.232 92.5169 12.609L192.064 26.83C199.946 27.956 205.801 34.7068 205.801 42.6692V234.679C205.801 244.416 197.178 251.895 187.539 250.518L87.9914 236.297C80.109 235.171 74.2542 228.421 74.2542 220.458V28.4482Z" fill="black"/>
<path d="M53.7 34.3207C53.7 24.5839 62.3238 17.1045 71.9627 18.4815L171.51 32.7025C179.392 33.8286 185.247 40.5793 185.247 48.5417V240.552C185.247 250.289 176.623 257.768 166.984 256.391L67.4372 242.17C59.5548 241.044 53.7 234.293 53.7 226.331V34.3207Z" fill="#DFD6FF"/>
<path d="M25.5576 132.295L25.5378 138.196L19.7749 134.878L19.7947 128.977L25.5576 132.295Z" fill="#F2F2F2"/>
<path d="M25.5576 132.296L30.9385 129.181L30.9188 135.075L25.5378 138.196L25.5576 132.296Z" fill="black"/>
<path d="M19.7947 128.977L25.1757 125.856L30.9386 129.181L25.5577 132.296L19.7947 128.977Z" fill="#CBCBCB"/>
<path d="M37.2157 127.17L37.2289 132.439L42.3793 129.47L42.3595 124.207L37.2157 127.17Z" fill="#F2F2F2"/>
<path d="M37.2157 127.17L32.4078 124.384L32.421 129.647L37.2289 132.439L37.2157 127.17Z" fill="black"/>
<path d="M42.3595 124.207L37.5582 121.421L32.4078 124.384L37.2157 127.17L42.3595 124.207Z" fill="#CBCBCB"/>
<path d="M35.8156 100.341L35.8419 109.928L45.2075 104.534L45.1811 94.947L35.8156 100.341Z" fill="#F2F2F2"/>
<path d="M35.8156 100.342L27.0692 95.269L27.0955 104.856L35.842 109.928L35.8156 100.342Z" fill="black"/>
<path d="M45.1812 94.947L36.4347 89.8745L27.0692 95.269L35.8156 100.341L45.1812 94.947Z" fill="#815DFF"/>
<path d="M19.3074 114.66L19.2745 125.18L9 119.26L9.02635 108.74L19.3074 114.66Z" fill="#FDD9D4"/>
<path d="M19.3073 114.66L28.9034 109.095L28.8771 119.614L19.2744 125.18L19.3073 114.66Z" fill="black"/>
<path d="M9.02625 108.74L18.6289 103.175L28.9034 109.095L19.3073 114.66L9.02625 108.74Z" fill="#CBCBCB"/>
<g opacity="0.15">
<path opacity="0.6" d="M70.3898 106.515L68.6887 103.081L72.2095 101.108L71.7546 100.161L76.6007 97.4375L75.9282 96.0759L79.4886 94.1224L78.4204 93.9645L76.0864 95.2866L63.6646 93.3331L61.924 89.939L65.4844 87.9262L65.0888 87.1961L69.9942 84.4532L69.8755 84.1967L80.1809 78.4149L83.0292 78.8687L83.1874 78.7898L86.4907 79.3226L88.2313 78.3359L90.7434 78.7503L90.8423 78.6911L103.205 80.6052L103.442 81.0986L106.409 81.5722L106.745 82.2036L108.486 85.6174L108.783 86.2686L106.706 87.4329L107.734 89.5443L105.836 90.6099L106.567 92.0307L102.453 94.3395L103.363 96.1549L101.247 97.3586L102.097 98.9373L91.6731 104.739L91.2181 104.68L86.7083 107.205L85.3237 106.988L82.7523 108.429L70.3898 106.515Z" fill="#2F2F2F"/>
</g>
<path d="M92.7412 95.898L103.185 90.1952V87.5115L92.7412 93.1946V95.898Z" fill="#46661A"/>
<path d="M75.5724 60.1421L86.0163 54.459L85.6206 54.2419L75.1768 59.9251L75.5724 60.1421Z" fill="#638E25"/>
<path d="M95.9456 92.4646L106.389 86.7815L105.143 86.1106L94.6995 91.7937L95.9456 92.4646Z" fill="#638E25"/>
<path d="M95.9262 94.9315L106.37 89.2286L106.39 86.7817L95.946 92.4649L95.9262 94.9315Z" fill="#46661A"/>
<path d="M86.6492 75.988L97.093 70.2851L95.748 69.5747L85.3041 75.2578L86.6492 75.988Z" fill="#638E25"/>
<path d="M94.6995 91.794L105.143 86.1109V82.48L94.6995 88.1631V91.794Z" fill="#46661A"/>
<path d="M94.6996 86.7422L105.143 81.0393L101.781 79.2239L91.337 84.907L94.6996 86.7422Z" fill="#638E25"/>
<path d="M91.337 84.9073L101.781 79.2241V75.5933L91.337 81.2764V84.9073Z" fill="#46661A"/>
<path d="M94.6995 88.1631V91.794L98.062 93.6292L98.0818 89.9983L94.6995 88.1631Z" fill="#628C26"/>
<path d="M98.0818 89.9983L108.526 84.2954L105.143 82.48L94.6995 88.1631L98.0818 89.9983Z" fill="#7D9B35"/>
<path d="M98.0623 93.6292L108.506 87.9263L108.526 84.2954L98.0821 89.9983L98.0623 93.6292Z" fill="#728E31"/>
<path d="M76.7395 54.5182L87.1833 48.8153L86.0361 48.2036L75.5922 53.8867L76.7395 54.5182Z" fill="#638E25"/>
<path d="M91.8116 78.7896L102.255 73.0868L97.0928 70.2847L86.649 75.9875L91.8116 78.7896Z" fill="#638E25"/>
<path d="M94.7194 83.1116L105.163 77.4087L101.781 75.5933L91.337 81.2764L94.7194 83.1116Z" fill="#7D9B35"/>
<path d="M94.6995 86.7422L105.143 81.0393L105.163 77.4084L94.7193 83.1113L94.6995 86.7422Z" fill="#728E31"/>
<path d="M91.337 81.2761V84.907L94.6996 86.7422L94.7194 83.1113L91.337 81.2761Z" fill="#628C26"/>
<path d="M98.0623 93.6289L108.506 87.926L108.565 82.677L98.1216 88.3799L98.0623 93.6289Z" fill="#46661A"/>
<path d="M98.1216 88.3802L108.565 82.6773L107.992 82.3813L97.548 88.0645L98.1216 88.3802Z" fill="#638E25"/>
<path d="M93.1569 79.5004L103.601 73.8173L102.256 73.0872L91.8118 78.79L93.1569 79.5004Z" fill="#638E25"/>
<path d="M85.3041 75.2578L95.748 69.5746L95.7875 59.7476L85.3437 65.4307L85.3041 75.2578Z" fill="#46661A"/>
<path d="M85.3435 65.4305L95.7874 59.7474L93.7303 58.6423L83.2864 64.3255L85.3435 65.4305Z" fill="#638E25"/>
<path d="M97.548 88.0642L107.992 82.3811L108.012 78.7305L97.5678 84.4333L97.548 88.0642Z" fill="#46661A"/>
<path d="M100.911 89.8999L111.354 84.197L111.374 81.4541L100.93 87.157L100.911 89.8999Z" fill="#3E5617"/>
<path d="M83.2864 64.326L93.7303 58.6428L93.75 52.3875L83.3062 58.0706L83.2864 64.326Z" fill="#46661A"/>
<path d="M83.3065 58.0699L93.7504 52.3868L92.3658 51.637L81.9219 57.3201L83.3065 58.0699Z" fill="#638E25"/>
<path d="M100.93 86.2488L111.374 80.5656L108.012 78.7305L97.5677 84.4333L100.93 86.2488Z" fill="#7D9B35"/>
<path d="M100.93 87.1563L111.374 81.4534V80.5654L100.93 86.2486V87.1563Z" fill="#728E31"/>
<path d="M81.9414 52.7816L92.3853 47.0985L87.2029 44.2964L76.7591 49.9795L81.9414 52.7816Z" fill="#638E25"/>
<path d="M81.9219 57.3201L92.3658 51.637L92.3855 47.0984L81.9417 52.7815L81.9219 57.3201Z" fill="#46661A"/>
<path d="M95.2337 70.7979L105.678 65.095L103.62 63.99L93.1766 69.6928L95.2337 70.7979Z" fill="#638E25"/>
<path d="M96.6382 65.2928L107.082 59.6097L105.697 58.8401L95.2537 64.5429L96.6382 65.2928Z" fill="#638E25"/>
<path d="M77.5702 77.2508L80.2999 78.7308L80.2801 83.9995L82.4361 85.1637V87.6107L85.6206 89.3274V92.0309L86.5899 92.5636L91.7525 95.3657L92.7217 95.8985V93.1951L95.9062 94.9119V92.465L94.6601 91.7941L94.6799 88.1632L98.0622 89.9984L98.0425 93.6292L98.1018 88.3802L97.5282 88.0645L97.548 84.4336L100.911 86.2491V87.1371L103.284 88.4197L103.324 75.1591L102.928 74.942L102.948 68.6867L101.801 68.0749L101.82 63.5363L96.6381 60.7342L96.6183 65.2728L95.2337 64.523L95.214 70.7784L93.1568 69.6733V79.5004L91.8316 78.7703L86.669 75.9682L85.3437 75.238L85.3833 65.411L83.3262 64.3059L83.346 58.0505L81.9614 57.3007L81.9811 52.7621L76.7988 49.96L76.779 54.4986L75.6318 53.8671L75.612 60.1225L75.2164 59.9054L75.1768 73.166L77.6295 74.4882L77.5702 77.2508ZM91.3371 84.9072L91.3569 81.2763L94.7195 83.1115L94.6997 86.7424L91.3371 84.9072Z" fill="#9EC769"/>
<path d="M97.5678 84.4338L97.548 88.0647L100.851 89.8604L100.911 89.8999L100.93 87.157V86.2493L97.5678 84.4338Z" fill="#628C26"/>
<path d="M103.304 88.4394L113.748 82.7562L113.787 69.4956L103.343 75.1787L103.304 88.4394Z" fill="#46661A"/>
<path d="M103.343 75.1785L113.787 69.4954L113.392 69.2783L102.948 74.9812L103.343 75.1785Z" fill="#638E25"/>
<path d="M102.948 74.9812L113.392 69.2784L113.412 63.0229L102.968 68.7258L102.948 74.9812Z" fill="#46661A"/>
<path d="M102.968 68.7257L113.412 63.0229L112.264 62.4111L101.821 68.0943L102.968 68.7257Z" fill="#638E25"/>
<path d="M101.821 68.0943L112.264 62.4112L112.284 57.8726L101.84 63.5754L101.821 68.0943Z" fill="#46661A"/>
<path d="M101.84 63.5755L112.284 57.8726L107.102 55.0706L96.6577 60.7537L101.84 63.5755Z" fill="#638E25"/>
<path opacity="0.3" d="M206.16 249.908C206.411 245.305 203.86 240.715 197.732 237.438C196.714 236.89 195.594 236.382 194.373 235.915C189.433 234.027 182.823 233.268 177.008 234.331C172.109 235.232 168.967 237.161 166.395 239.463C164.678 241.006 164.251 242.692 164.57 244.405C164.509 244.066 164.454 243.728 164.454 243.396L164.434 250.342C164.42 253.632 167.637 257.105 170.344 259.867C171.925 261.491 173.629 263.089 175.128 264.734C176.139 265.837 177.076 266.975 177.829 268.146C178.894 269.805 179.641 272.736 182.321 274.171C182.579 274.306 182.857 274.435 183.149 274.543C183.231 274.577 183.326 274.598 183.414 274.625C183.461 274.638 183.509 274.658 183.556 274.672C183.624 274.692 183.692 274.719 183.76 274.733C183.923 274.774 184.099 274.814 184.276 274.848C184.432 274.875 184.601 274.902 184.764 274.929C184.805 274.936 184.846 274.943 184.886 274.943C184.995 274.956 185.103 274.963 185.219 274.977C185.375 274.99 185.531 274.997 185.687 274.997C185.87 275.004 186.054 274.997 186.23 274.997C186.386 274.99 186.542 274.977 186.691 274.97C186.725 274.97 186.752 274.963 186.786 274.963C186.827 274.956 186.875 274.956 186.915 274.956C187.261 274.922 187.607 274.875 187.947 274.821C188.15 274.787 188.361 274.746 188.557 274.706C189.039 274.604 189.494 274.489 189.935 274.354C190.383 274.218 190.722 274.009 191.129 273.846C191.679 273.629 192.242 273.42 192.738 273.162C192.894 273.081 193.09 273.034 193.24 272.952C193.776 272.655 194.258 272.309 194.739 271.971C194.889 271.863 195.058 271.775 195.208 271.666C195.9 271.158 196.558 270.624 197.196 270.082C197.304 269.987 197.413 269.893 197.528 269.798C198.329 269.101 199.116 268.396 199.931 267.726C200.046 267.631 200.161 267.537 200.27 267.442C200.528 267.225 200.758 266.995 200.996 266.772C201.132 266.643 201.274 266.528 201.403 266.399C201.817 265.993 202.204 265.58 202.563 265.154C202.57 265.147 202.57 265.147 202.57 265.14C202.591 265.12 202.604 265.093 202.624 265.073C202.957 264.68 203.256 264.28 203.541 263.874C203.636 263.739 203.717 263.603 203.812 263.475C203.927 263.306 204.05 263.136 204.158 262.96C204.246 262.818 204.321 262.669 204.402 262.52C204.477 262.392 204.545 262.27 204.613 262.141C204.837 261.721 205.04 261.295 205.217 260.869C205.223 260.848 205.23 260.835 205.237 260.814L205.244 260.808C205.42 260.368 205.563 259.928 205.692 259.481C205.726 259.359 205.76 259.237 205.787 259.115C205.821 258.973 205.868 258.831 205.895 258.689C205.95 258.452 205.977 258.215 206.017 257.978C206.031 257.897 206.051 257.815 206.058 257.734C206.106 257.355 206.146 256.969 206.153 256.59C206.16 256.482 206.16 256.38 206.16 256.272L206.18 249.326C206.201 249.516 206.167 249.712 206.16 249.908ZM201.559 252.664C201.552 251.926 201.403 251.195 201.179 250.463C201.403 251.188 201.552 251.919 201.559 252.664ZM201.071 250.105C200.874 249.543 200.65 248.988 200.372 248.439C200.297 248.29 200.209 248.148 200.127 247.999C200.209 248.148 200.297 248.29 200.372 248.439C200.643 248.988 200.874 249.543 201.071 250.105ZM199.897 247.58C199.557 246.97 199.198 246.361 198.824 245.758C199.198 246.361 199.557 246.97 199.897 247.58ZM165.126 246.158C164.889 245.637 164.699 245.109 164.583 244.587C164.699 245.109 164.889 245.637 165.126 246.158ZM167.413 249.698C167.006 249.204 166.632 248.703 166.28 248.189C166.626 248.697 167.006 249.204 167.413 249.698ZM166.049 247.83C165.784 247.417 165.547 247.004 165.33 246.584C165.54 246.997 165.784 247.417 166.049 247.83ZM169.103 251.608C169.523 252.061 169.951 252.501 170.358 252.921C169.951 252.501 169.523 252.061 169.103 251.608ZM167.684 250.01C168.024 250.416 168.376 250.815 168.736 251.208C168.376 250.815 168.024 250.416 167.684 250.01ZM202.604 258.194C202.36 258.479 202.088 258.756 201.824 259.034C202.109 258.736 202.401 258.438 202.658 258.127C202.638 258.147 202.624 258.174 202.604 258.194ZM203.086 257.565C203.283 257.314 203.48 257.064 203.656 256.807C203.629 256.847 203.602 256.888 203.575 256.929C203.425 257.145 203.249 257.355 203.086 257.565ZM204.124 256.076C204.28 255.818 204.443 255.561 204.586 255.304C204.538 255.392 204.484 255.487 204.436 255.575C204.335 255.744 204.226 255.906 204.124 256.076ZM205.251 253.916C205.162 254.133 205.047 254.342 204.945 254.552C205.074 254.275 205.21 253.99 205.325 253.706C205.305 253.76 205.291 253.808 205.271 253.862C205.264 253.882 205.257 253.902 205.251 253.916ZM205.726 252.528C205.678 252.697 205.61 252.86 205.556 253.022C205.651 252.745 205.739 252.467 205.814 252.183C205.787 252.305 205.76 252.42 205.726 252.528ZM206.051 251.032C206.031 251.181 205.99 251.323 205.963 251.472C206.017 251.188 206.072 250.91 206.106 250.626C206.099 250.68 206.099 250.741 206.092 250.795C206.085 250.87 206.065 250.951 206.051 251.032Z" fill="#2F2F2F"/>
<path d="M189.717 227.137C189.283 226.791 188.767 226.446 188.197 226.115C188.767 226.446 189.283 226.791 189.717 227.137Z" fill="#773E2D"/>
<path d="M189.718 227.137C190.356 227.638 190.851 228.193 191.272 228.775C190.851 228.193 190.356 227.638 189.718 227.137Z" fill="#773E2D"/>
<path d="M196.157 238.171C196.124 238.05 196.09 237.921 196.049 237.799C196.09 237.921 196.124 238.043 196.157 238.171Z" fill="#773E2D"/>
<path d="M195.94 247.913C195.961 247.893 195.988 247.873 196.008 247.846C196.056 247.798 196.103 247.751 196.151 247.704C196.083 247.778 196.008 247.846 195.94 247.913Z" fill="#903D27"/>
<path d="M195.221 248.611C195.465 248.38 195.709 248.15 195.94 247.913V247.906C195.709 248.15 195.472 248.38 195.221 248.611Z" fill="#943F28"/>
<path d="M194.99 248.841C195.072 248.766 195.146 248.685 195.228 248.611C195.14 248.685 195.072 248.766 194.99 248.841Z" fill="#99412A"/>
<path d="M192.493 251.163C192.561 251.102 192.622 251.041 192.69 250.98C192.629 251.041 192.554 251.088 192.493 251.149V251.163Z" fill="#9E432B"/>
<path d="M190.464 252.909C191.129 252.381 191.76 251.833 192.371 251.271C192.411 251.23 192.452 251.196 192.493 251.156V251.142C191.841 251.752 191.176 252.347 190.464 252.909Z" fill="#A2452C"/>
<path d="M189.351 253.695C189.575 253.539 189.799 253.39 190.009 253.228C189.806 253.383 189.562 253.505 189.351 253.654V253.695Z" fill="#A2452C"/>
<path d="M185.945 255.441C186.162 255.36 186.338 255.252 186.549 255.164C186.359 255.245 186.141 255.306 185.945 255.38V255.441Z" fill="#A7472D"/>
<path d="M188.096 254.46C188.245 254.378 188.435 254.324 188.577 254.243C188.856 254.074 189.093 253.877 189.358 253.695V253.654C188.944 253.932 188.537 254.209 188.096 254.46Z" fill="#A7472D"/>
<path d="M184.438 255.922V255.949C184.771 255.868 185.097 255.78 185.409 255.685C185.612 255.617 185.755 255.509 185.952 255.441V255.38C185.449 255.563 184.988 255.78 184.438 255.922Z" fill="#A2452C"/>
<path d="M183.672 256.132C183.807 256.105 183.95 256.078 184.085 256.051C183.95 256.078 183.807 256.091 183.672 256.118V256.132Z" fill="#9E432B"/>
<path d="M184.078 256.05C184.201 256.023 184.309 255.983 184.431 255.956V255.928C184.302 255.956 184.214 256.016 184.078 256.05Z" fill="#9E432B"/>
<path d="M183.108 256.199V256.22C183.237 256.199 183.366 256.186 183.495 256.165C183.556 256.152 183.61 256.138 183.671 256.132V256.111C183.488 256.145 183.298 256.172 183.108 256.199Z" fill="#99412A"/>
<path d="M182.66 256.267V256.281C182.81 256.26 182.959 256.24 183.108 256.22V256.199C182.959 256.227 182.81 256.254 182.66 256.267Z" fill="#943F28"/>
<path d="M182.382 256.315C182.423 256.308 182.464 256.308 182.504 256.308C182.559 256.301 182.606 256.294 182.654 256.287V256.274C182.565 256.281 182.477 256.308 182.382 256.315Z" fill="#903D27"/>
<path d="M181.88 256.315V256.348C182.009 256.342 182.131 256.335 182.26 256.321C182.131 256.328 182.009 256.308 181.88 256.315Z" fill="#8B3B26"/>
<path d="M181.507 256.308V256.348C181.622 256.348 181.738 256.348 181.846 256.348C181.86 256.348 181.866 256.348 181.88 256.348V256.314C181.758 256.321 181.629 256.308 181.507 256.308Z" fill="#873925"/>
<path d="M181.107 256.301V256.342C181.181 256.348 181.249 256.348 181.324 256.355C181.385 256.355 181.446 256.355 181.507 256.355V256.315C181.371 256.308 181.242 256.308 181.107 256.301Z" fill="#823723"/>
<path d="M180.611 256.294C180.699 256.308 180.788 256.321 180.876 256.328C180.95 256.335 181.032 256.335 181.113 256.342V256.301C180.944 256.294 180.774 256.314 180.611 256.294Z" fill="#7D3522"/>
<path d="M180.557 256.294C180.578 256.294 180.599 256.301 180.612 256.301V256.294C180.592 256.294 180.571 256.294 180.557 256.294Z" fill="#793321"/>
<path d="M178.88 255.881C179.07 255.956 179.267 256.023 179.471 256.078C179.634 256.125 179.797 256.166 179.966 256.199C180.116 256.233 180.278 256.26 180.434 256.281C180.475 256.287 180.516 256.294 180.557 256.294C179.579 256.172 178.765 255.888 178.087 255.495C178.331 255.638 178.595 255.766 178.88 255.881Z" fill="#793321"/>
<path d="M200.934 237.596C200.921 237.84 200.914 238.09 200.887 238.334C200.88 238.395 200.88 238.449 200.873 238.51C200.86 238.591 200.846 238.679 200.833 238.761C200.812 238.909 200.772 239.065 200.744 239.214C200.697 239.465 200.663 239.708 200.602 239.959C200.575 240.074 200.548 240.196 200.514 240.311C200.466 240.48 200.405 240.649 200.351 240.825C200.276 241.062 200.215 241.299 200.127 241.536C200.107 241.59 200.093 241.644 200.079 241.699C200.073 241.719 200.066 241.732 200.059 241.753C199.978 241.976 199.869 242.193 199.767 242.409C199.652 242.667 199.55 242.924 199.421 243.181C199.374 243.276 199.326 243.371 199.279 243.466C199.19 243.635 199.082 243.804 198.987 243.973C198.838 244.23 198.695 244.488 198.539 244.738C198.512 244.779 198.492 244.819 198.464 244.867C198.322 245.083 198.159 245.3 198.003 245.517C197.86 245.713 197.731 245.916 197.582 246.106C197.562 246.126 197.548 246.153 197.528 246.173C197.297 246.471 197.033 246.749 196.781 247.04C196.578 247.27 196.374 247.5 196.157 247.724C196.11 247.771 196.062 247.818 196.015 247.866C195.994 247.886 195.967 247.913 195.947 247.934C195.716 248.17 195.472 248.401 195.228 248.631C195.146 248.705 195.071 248.787 194.99 248.861L194.97 256.044C195.078 255.949 195.187 255.847 195.295 255.746C195.54 255.522 195.764 255.285 195.994 255.049C196.123 254.92 196.259 254.791 196.381 254.663C196.775 254.243 197.148 253.81 197.494 253.37C197.494 253.363 197.501 253.363 197.501 253.363C197.521 253.336 197.535 253.309 197.555 253.288C197.874 252.882 198.159 252.469 198.437 252.05C198.525 251.914 198.607 251.772 198.695 251.637C198.804 251.461 198.926 251.285 199.028 251.102C199.109 250.953 199.184 250.797 199.258 250.648C199.326 250.52 199.394 250.391 199.462 250.256C199.672 249.822 199.876 249.382 200.045 248.935C200.052 248.915 200.059 248.902 200.066 248.881C200.066 248.875 200.066 248.875 200.073 248.875C200.242 248.421 200.385 247.961 200.5 247.5C200.534 247.372 200.561 247.25 200.595 247.121C200.629 246.972 200.67 246.83 200.704 246.681C200.751 246.437 200.785 246.194 200.819 245.943C200.833 245.862 200.846 245.774 200.86 245.693C200.907 245.3 200.941 244.901 200.955 244.508C200.955 244.4 200.962 244.291 200.962 244.176L200.982 236.994C200.975 237.197 200.948 237.393 200.934 237.596Z" fill="#A0533D"/>
<path d="M194.99 248.841C194.753 249.051 194.522 249.281 194.285 249.497L194.264 256.66C194.495 256.443 194.732 256.233 194.97 256.024L194.99 248.841Z" fill="#A0533D"/>
<path d="M194.278 249.497C193.748 249.992 193.219 250.479 192.683 250.98C192.615 251.041 192.554 251.102 192.486 251.163C192.445 251.203 192.405 251.237 192.364 251.278L192.344 258.44C192.445 258.345 192.554 258.264 192.656 258.169C193.192 257.668 193.721 257.161 194.257 256.666L194.278 249.497Z" fill="#9B513B"/>
<path d="M192.371 251.271C191.76 251.833 191.129 252.381 190.464 252.909C190.321 253.024 190.159 253.119 190.009 253.227C189.792 253.39 189.568 253.539 189.351 253.695C189.086 253.877 188.849 254.074 188.571 254.243L188.55 261.338C189.039 261.04 189.548 260.749 189.989 260.41C190.131 260.302 190.294 260.207 190.437 260.092C191.109 259.564 191.733 259.002 192.344 258.433L192.371 251.271Z" fill="#A0533D"/>
<path d="M188.571 254.243C188.428 254.331 188.238 254.378 188.089 254.46C187.614 254.724 187.078 254.94 186.548 255.164C186.338 255.252 186.162 255.36 185.945 255.441C185.748 255.516 185.605 255.624 185.402 255.685L185.381 262.752C185.775 262.624 186.162 262.495 186.528 262.34C187.057 262.116 187.593 261.899 188.068 261.635C188.238 261.541 188.387 261.426 188.55 261.331L188.571 254.243Z" fill="#A4563F"/>
<path d="M185.402 255.685C185.09 255.787 184.764 255.868 184.431 255.949C184.309 255.983 184.201 256.017 184.078 256.044C183.943 256.071 183.807 256.098 183.665 256.125C183.603 256.139 183.549 256.152 183.488 256.159L183.468 263.315C183.665 263.281 183.868 263.267 184.058 263.22C184.554 263.105 184.927 262.895 185.381 262.746L185.402 255.685Z" fill="#A0533D"/>
<path d="M183.495 256.166C183.366 256.186 183.237 256.199 183.108 256.22C182.959 256.24 182.81 256.267 182.66 256.281C182.606 256.287 182.558 256.294 182.511 256.301L182.491 263.47C182.823 263.436 183.149 263.375 183.475 263.314L183.495 256.166Z" fill="#9B513B"/>
<path d="M182.504 256.308C182.463 256.314 182.423 256.314 182.382 256.314C182.355 256.314 182.321 256.321 182.294 256.321C182.28 256.321 182.273 256.321 182.26 256.321C182.131 256.328 182.009 256.341 181.88 256.348C181.866 256.348 181.859 256.348 181.846 256.348L181.826 263.49C181.975 263.484 182.124 263.511 182.273 263.497C182.301 263.497 182.334 263.49 182.362 263.49C182.402 263.484 182.443 263.477 182.484 263.47L182.504 256.308Z" fill="#964F39"/>
<path d="M181.846 256.348C181.731 256.355 181.615 256.348 181.507 256.348C181.446 256.348 181.384 256.348 181.323 256.348L181.303 263.484C181.479 263.49 181.649 263.497 181.826 263.49L181.846 256.348Z" fill="#924C38"/>
<path d="M181.323 256.355C181.249 256.355 181.181 256.348 181.106 256.342C181.025 256.335 180.95 256.335 180.869 256.328L180.848 263.477C180.998 263.49 181.147 263.477 181.303 263.484L181.323 256.355Z" fill="#8D4A36"/>
<path d="M180.869 256.328C180.781 256.321 180.693 256.314 180.604 256.301C180.584 256.301 180.564 256.294 180.55 256.294C180.509 256.287 180.469 256.281 180.428 256.281L180.414 263.436C180.462 263.443 180.489 263.47 180.536 263.477C180.645 263.49 180.747 263.47 180.855 263.484L180.869 256.328Z" fill="#894734"/>
<path d="M180.435 256.281C180.272 256.26 180.116 256.233 179.966 256.199L179.946 263.287C180.116 263.328 180.231 263.416 180.414 263.436L180.435 256.281Z" fill="#844532"/>
<path d="M179.966 256.199C179.797 256.166 179.634 256.125 179.471 256.078L179.451 263.125C179.62 263.179 179.763 263.247 179.946 263.287L179.966 256.199Z" fill="#804331"/>
<path d="M179.471 256.078C179.267 256.017 179.071 255.956 178.881 255.881L178.86 262.935C179.043 263.01 179.254 263.064 179.451 263.125L179.471 256.078Z" fill="#7B402F"/>
<path d="M178.88 255.881C178.595 255.766 178.331 255.644 178.087 255.495C175.515 254.013 174.795 250.987 173.778 249.267C173.051 248.062 172.156 246.884 171.185 245.74C169.747 244.048 168.111 242.389 166.598 240.717C166.198 240.277 165.791 239.823 165.383 239.349C165.268 239.214 165.153 239.085 165.037 238.95C164.691 238.544 164.352 238.131 164.02 237.704C163.931 237.596 163.843 237.488 163.762 237.379C163.375 236.872 163.008 236.35 162.676 235.822C162.595 235.701 162.527 235.572 162.452 235.45C162.194 235.024 161.97 234.597 161.767 234.164C161.699 234.015 161.631 233.873 161.57 233.731C161.346 233.189 161.156 232.647 161.047 232.106C161.034 232.045 161.041 231.984 161.027 231.916C160.966 231.571 160.918 231.219 160.918 230.874L160.898 238.056C160.884 241.455 163.972 245.043 166.571 247.9C168.084 249.572 169.726 251.23 171.165 252.923C172.135 254.067 173.031 255.238 173.757 256.45C174.782 258.163 175.494 261.195 178.066 262.678C178.283 262.807 178.616 262.834 178.86 262.935L178.88 255.881Z" fill="#773E2D"/>
<path d="M161.563 233.724C161.624 233.873 161.692 234.015 161.76 234.157C161.964 234.591 162.188 235.017 162.445 235.444C162.52 235.565 162.588 235.694 162.669 235.816C163.002 236.344 163.368 236.865 163.755 237.373C163.837 237.481 163.925 237.59 164.013 237.698C164.345 238.118 164.685 238.537 165.031 238.944C165.146 239.079 165.262 239.214 165.377 239.343C165.784 239.81 166.191 240.27 166.592 240.71C168.105 242.383 169.747 244.041 171.179 245.734C172.149 246.878 173.045 248.049 173.771 249.261C174.796 250.973 175.508 254.006 178.08 255.489C178.759 255.881 179.573 256.166 180.55 256.288C180.57 256.288 180.591 256.288 180.604 256.288C180.767 256.308 180.937 256.288 181.1 256.294C181.235 256.301 181.364 256.301 181.5 256.301C181.622 256.301 181.751 256.308 181.873 256.308C182.002 256.301 182.124 256.321 182.253 256.315C182.267 256.315 182.274 256.315 182.287 256.315C182.314 256.315 182.348 256.308 182.375 256.308C182.47 256.301 182.559 256.274 182.654 256.267C182.81 256.247 182.952 256.22 183.102 256.2C183.292 256.173 183.475 256.145 183.665 256.112C183.8 256.085 183.943 256.078 184.079 256.044C184.214 256.017 184.303 255.949 184.432 255.915C184.988 255.773 185.443 255.556 185.945 255.374C186.142 255.299 186.359 255.238 186.549 255.157C187.078 254.934 187.614 254.717 188.089 254.453C188.537 254.203 188.937 253.925 189.344 253.647C189.555 253.499 189.799 253.377 190.003 253.221C190.152 253.113 190.315 253.018 190.457 252.903C191.17 252.341 191.835 251.738 192.486 251.136C192.547 251.075 192.622 251.028 192.683 250.967C193.219 250.466 193.748 249.978 194.278 249.484C194.515 249.267 194.746 249.037 194.983 248.827C195.065 248.753 195.14 248.672 195.221 248.597C195.472 248.367 195.703 248.137 195.94 247.9C196.008 247.832 196.083 247.765 196.151 247.697C196.368 247.473 196.571 247.243 196.775 247.013C197.046 246.702 197.325 246.397 197.576 246.079C197.725 245.883 197.854 245.686 197.996 245.49C198.18 245.233 198.37 244.975 198.539 244.718C198.702 244.468 198.845 244.21 198.987 243.953C199.136 243.689 199.292 243.432 199.421 243.161C199.55 242.904 199.659 242.647 199.767 242.389C199.896 242.098 200.025 241.814 200.134 241.516C200.222 241.279 200.283 241.042 200.358 240.805C200.446 240.521 200.534 240.23 200.602 239.939C200.663 239.688 200.704 239.445 200.745 239.194C200.799 238.903 200.846 238.612 200.88 238.321C200.908 238.077 200.914 237.827 200.928 237.583C201.172 232.824 198.722 228.085 192.846 224.693C191.869 224.131 190.797 223.603 189.623 223.123C184.879 221.166 178.535 220.388 172.957 221.484C168.254 222.412 165.241 224.409 162.771 226.792C161.122 228.383 160.715 230.129 161.014 231.896C161.027 231.957 161.02 232.018 161.034 232.086C161.149 232.641 161.339 233.183 161.563 233.724ZM170.059 225.174C170.683 224.91 171.382 224.72 172.122 224.585C172.862 224.45 173.628 224.355 174.395 224.294C175.909 224.165 177.442 224.118 178.976 224.145C180.503 224.179 182.029 224.287 183.522 224.477C184.37 224.585 185.205 224.802 185.992 225.086C186.786 225.37 187.533 225.729 188.198 226.115C188.768 226.447 189.283 226.792 189.718 227.137C190.356 227.638 190.851 228.193 191.272 228.775C191.692 229.358 192.032 229.96 192.357 230.563C193.314 232.39 194.508 234.225 195.377 236.08C195.642 236.649 195.866 237.224 196.049 237.806C196.09 237.928 196.117 238.05 196.157 238.172C196.361 238.883 196.517 239.593 196.537 240.318C196.551 240.798 196.517 241.279 196.422 241.76C195.757 245.402 192.832 248.922 188.116 251.386C186.142 252.415 183.264 253.289 180.944 252.537C180.584 252.422 180.272 252.28 179.98 252.117C179.519 251.847 179.125 251.529 178.765 251.21C178.06 250.594 177.469 249.978 176.954 249.355C175.4 247.487 174.504 245.585 173.262 243.588C171.62 240.961 168.919 238.585 167.521 235.89C166.028 233.04 165.262 227.218 170.059 225.174Z" fill="#E47757"/>
<path d="M180.516 233.704C180.774 233.609 181.011 233.507 181.235 233.392C181.011 233.507 180.774 233.609 180.516 233.704Z" fill="#C85436"/>
<path d="M179.132 234.144C179.613 234.015 180.088 233.866 180.516 233.71C180.082 233.866 179.607 234.015 179.132 234.144Z" fill="#C85436"/>
<path d="M177.048 234.367C177.625 234.428 178.195 234.36 178.752 234.238C178.202 234.36 177.625 234.428 177.048 234.367Z" fill="#C85436"/>
<path d="M174.986 237.705C174.259 237.448 173.601 237.136 173.011 236.798C173.499 237.082 174.029 237.332 174.606 237.563C174.734 237.61 174.857 237.657 174.986 237.705Z" fill="#C85436"/>
<path d="M176.282 238.07C176.444 238.104 176.614 238.131 176.784 238.158C176.879 238.172 176.967 238.185 177.062 238.192C176.315 238.111 175.63 237.928 174.985 237.705C175.203 237.779 175.42 237.854 175.644 237.914C175.854 237.975 176.064 238.03 176.282 238.07Z" fill="#C85436"/>
<path d="M186.433 234.645C185.985 235.024 185.456 235.362 184.906 235.694C184.961 235.66 185.022 235.633 185.076 235.606C185.572 235.308 186.033 234.99 186.433 234.645Z" fill="#C85436"/>
<path d="M187.383 233.683C187.397 233.663 187.417 233.65 187.431 233.636C187.539 233.501 187.634 233.358 187.716 233.223C187.77 233.135 187.811 233.047 187.845 232.959C187.872 232.891 187.892 232.824 187.906 232.756C187.913 232.736 187.913 232.709 187.919 232.688C187.865 233 187.655 233.345 187.383 233.683Z" fill="#C85436"/>
<path d="M177.537 238.219C177.687 238.226 177.829 238.219 177.972 238.219C178.141 238.212 178.311 238.199 178.48 238.185C178.521 238.178 178.562 238.172 178.603 238.165C178.1 238.226 177.585 238.239 177.055 238.192C177.076 238.192 177.103 238.199 177.123 238.199C177.266 238.212 177.401 238.219 177.537 238.219Z" fill="#C85436"/>
<path d="M180.754 237.644C180.611 237.691 180.475 237.752 180.333 237.792C180.387 237.779 180.441 237.765 180.496 237.752C180.584 237.725 180.659 237.677 180.754 237.644Z" fill="#C85436"/>
<path d="M187.132 233.948C186.901 234.198 186.664 234.448 186.44 234.645C186.508 234.584 186.583 234.516 186.657 234.448C186.82 234.3 186.969 234.117 187.132 233.948Z" fill="#C85436"/>
<path d="M167.514 235.877C168.912 238.571 171.613 240.94 173.255 243.574C174.497 245.571 175.393 247.473 176.947 249.341C177.469 249.964 178.059 250.58 178.758 251.196C179.118 251.515 179.512 251.84 179.973 252.104C180.258 252.266 180.577 252.415 180.937 252.523C183.257 253.275 186.141 252.401 188.109 251.372C192.825 248.908 195.75 245.388 196.415 241.746C196.503 241.258 196.544 240.778 196.53 240.304C196.51 239.586 196.361 238.869 196.157 238.165C196.123 238.043 196.089 237.914 196.049 237.792C195.859 237.217 195.642 236.641 195.377 236.073C194.508 234.218 193.307 232.383 192.357 230.556C192.031 229.953 191.692 229.35 191.271 228.768C190.851 228.186 190.355 227.631 189.718 227.13C189.283 226.785 188.767 226.44 188.197 226.108C187.532 225.722 186.786 225.37 185.992 225.079C185.198 224.794 184.363 224.571 183.522 224.47C182.029 224.28 180.502 224.172 178.976 224.138C177.449 224.104 175.915 224.158 174.395 224.287C173.628 224.354 172.862 224.442 172.122 224.578C171.382 224.72 170.683 224.903 170.059 225.167C165.261 227.218 166.028 233.04 167.514 235.877ZM173.425 225.857C175.332 225.478 177.456 225.499 179.389 225.81C181.29 226.121 183.013 226.731 184.411 227.536C186.759 228.89 188.177 230.786 187.906 232.688C187.926 232.566 187.933 232.437 187.94 232.316C187.94 232.289 187.94 232.255 187.94 232.228L187.933 233.791C187.933 233.798 187.933 233.805 187.933 233.812C187.933 233.961 187.919 234.11 187.899 234.259C187.899 234.265 187.885 234.272 187.885 234.279C187.879 234.313 187.838 234.353 187.824 234.387C187.804 234.462 187.736 234.55 187.695 234.624C187.614 234.8 187.553 234.976 187.41 235.159C187.383 235.193 187.39 235.22 187.363 235.247C187.288 235.342 187.193 235.423 187.112 235.518C186.956 235.687 186.8 235.849 186.637 235.998C186.562 236.066 186.494 236.154 186.42 236.215C186.019 236.553 185.544 236.851 185.062 237.149C185.001 237.183 184.954 237.23 184.893 237.264C184.255 237.637 183.576 237.989 182.884 238.327C182.226 238.645 181.493 238.957 180.74 239.214C180.652 239.241 180.563 239.275 180.475 239.309C180.421 239.329 180.367 239.349 180.312 239.363C180.136 239.417 179.953 239.451 179.769 239.498C179.566 239.552 179.356 239.593 179.138 239.627C178.989 239.654 178.847 239.701 178.697 239.715C178.657 239.722 178.623 239.728 178.582 239.728C178.541 239.735 178.501 239.728 178.46 239.728C178.29 239.742 178.121 239.728 177.951 239.735C177.808 239.742 177.659 239.749 177.517 239.742C177.381 239.742 177.245 239.762 177.109 239.749C177.089 239.749 177.062 239.749 177.042 239.749C176.94 239.735 176.858 239.695 176.763 239.681C176.587 239.654 176.431 239.6 176.261 239.566C176.044 239.519 175.834 239.478 175.623 239.417C175.413 239.356 175.169 239.336 174.965 239.261C174.829 239.214 174.721 239.14 174.585 239.085C174.022 238.862 173.465 238.625 172.99 238.354C170.683 237.027 169.333 235.152 168.505 233.311C168.322 232.891 168.227 232.465 168.234 232.031L168.24 230.467C168.24 230.515 168.268 230.555 168.268 230.603C168.193 228.599 170.059 226.555 173.425 225.857Z" fill="#C85436"/>
<path d="M179.79 237.935C179.437 238.023 179.084 238.111 178.724 238.158C178.874 238.138 179.023 238.124 179.166 238.097C179.376 238.05 179.579 237.982 179.79 237.935Z" fill="#C85436"/>
<path d="M178.759 234.238C178.887 234.211 179.003 234.177 179.132 234.144C179.003 234.177 178.887 234.211 178.759 234.238Z" fill="#A0533D"/>
<path d="M172.04 228.403C171.932 228.511 171.857 228.619 171.783 228.734C173.214 228.159 175.284 227.854 176.75 227.996C178.059 228.118 179.132 228.457 179.946 228.924C181.907 230.054 182.416 231.943 181.222 233.385C181.195 233.419 181.167 233.453 181.14 233.487C184.112 232.112 184.051 229.317 181.48 227.834C180.665 227.367 179.593 227.022 178.29 226.907C178.073 226.886 177.842 226.879 177.598 226.879C175.617 226.873 173.024 227.468 172.04 228.403Z" fill="#C85436"/>
<path d="M171.484 229.628C171.545 230.068 171.789 230.535 172.129 230.996C172.801 231.91 173.859 232.79 174.646 233.358C174.836 233.494 175.04 233.629 175.257 233.751C175.766 234.042 176.35 234.286 177.055 234.36C177.632 234.421 178.202 234.353 178.759 234.232C178.887 234.204 179.003 234.171 179.132 234.137C179.614 234.008 180.089 233.859 180.516 233.697C180.774 233.602 181.018 233.494 181.235 233.385C182.423 231.937 181.914 230.048 179.96 228.924C179.139 228.45 178.066 228.112 176.763 227.997C175.291 227.854 173.221 228.159 171.796 228.735C171.871 228.619 171.939 228.504 172.054 228.403C173.031 227.469 175.63 226.873 177.618 226.88C177.123 226.866 176.573 226.9 176.024 226.968C174.925 227.103 173.798 227.374 172.95 227.76C172.522 227.949 172.169 228.173 171.925 228.41C171.532 228.768 171.416 229.188 171.484 229.628Z" fill="#C4674B"/>
<path d="M187.933 233.805C187.933 233.799 187.933 233.792 187.933 233.785L187.94 232.221C187.94 232.248 187.94 232.275 187.94 232.309L187.933 233.805Z" fill="#949494"/>
<path d="M187.892 234.272C187.892 234.266 187.899 234.259 187.906 234.252C187.926 234.103 187.94 233.954 187.94 233.805L187.947 232.309C187.94 232.431 187.933 232.56 187.913 232.681C187.913 232.702 187.906 232.729 187.899 232.749L187.892 234.272Z" fill="#999999"/>
<path d="M187.899 232.756C187.885 232.824 187.865 232.891 187.838 232.959L187.831 234.387C187.838 234.354 187.885 234.313 187.892 234.279L187.899 232.756Z" fill="#9E9E9E"/>
<path d="M187.838 232.952C187.804 233.04 187.763 233.128 187.709 233.216L187.702 234.618C187.736 234.536 187.811 234.455 187.831 234.381L187.838 232.952Z" fill="#A3A3A3"/>
<path d="M187.431 233.629L187.424 235.152C187.56 234.969 187.628 234.793 187.709 234.617L187.716 233.216C187.634 233.358 187.539 233.494 187.431 233.629Z" fill="#A8A8A8"/>
<path d="M187.383 233.683C187.308 233.778 187.22 233.853 187.132 233.947C186.969 234.123 186.82 234.299 186.65 234.455L186.643 235.999C186.806 235.85 186.962 235.687 187.118 235.518C187.2 235.43 187.295 235.342 187.37 235.247C187.397 235.22 187.39 235.186 187.417 235.159L187.424 233.636C187.417 233.65 187.397 233.663 187.383 233.683Z" fill="#ADADAD"/>
<path d="M186.433 234.645L186.426 236.208C186.494 236.147 186.569 236.059 186.644 235.992L186.65 234.448C186.582 234.523 186.508 234.584 186.433 234.645Z" fill="#B3B3B3"/>
<path d="M176.784 238.158L176.777 239.695C176.879 239.708 176.953 239.749 177.055 239.763L177.062 238.199C176.967 238.185 176.872 238.172 176.784 238.158Z" fill="#999999"/>
<path d="M176.282 238.07L176.275 239.573C176.444 239.607 176.6 239.668 176.777 239.688L176.784 238.151C176.614 238.138 176.444 238.104 176.282 238.07Z" fill="#949494"/>
<path d="M175.644 237.915L175.637 239.424C175.84 239.485 176.058 239.526 176.275 239.573L176.282 238.07C176.064 238.03 175.854 237.975 175.644 237.915Z" fill="#8F8F8F"/>
<path d="M174.986 237.705C174.857 237.657 174.734 237.61 174.606 237.562L174.599 239.099C174.734 239.153 174.836 239.221 174.979 239.275C175.182 239.35 175.427 239.37 175.637 239.431L175.644 237.921C175.42 237.854 175.203 237.779 174.986 237.705Z" fill="#8A8A8A"/>
<path d="M173.011 236.797C170.704 235.47 169.353 233.595 168.526 231.754C168.363 231.382 168.295 230.996 168.281 230.61C168.281 230.562 168.254 230.522 168.254 230.474L168.247 232.038C168.247 232.471 168.336 232.905 168.519 233.318C169.347 235.166 170.704 237.034 173.004 238.361C173.486 238.639 174.036 238.869 174.599 239.092L174.606 237.556C174.029 237.339 173.5 237.082 173.011 236.797Z" fill="#858585"/>
<path d="M185.076 235.606L185.069 237.143C185.558 236.851 186.033 236.547 186.426 236.208L186.433 234.645C186.033 234.99 185.571 235.308 185.076 235.606Z" fill="#B3B3B3"/>
<path d="M184.906 235.694C184.268 236.066 183.597 236.418 182.898 236.757C182.233 237.082 181.507 237.386 180.753 237.644C180.658 237.677 180.584 237.725 180.489 237.752L180.482 239.302C180.57 239.275 180.658 239.241 180.747 239.207C181.5 238.943 182.226 238.639 182.891 238.321C183.59 237.982 184.268 237.63 184.9 237.258C184.961 237.224 185.008 237.177 185.069 237.143L185.076 235.606C185.022 235.64 184.961 235.66 184.906 235.694Z" fill="#B8B8B8"/>
<path d="M180.333 237.793C180.157 237.847 179.973 237.881 179.79 237.928C179.58 237.982 179.376 238.05 179.159 238.084L179.152 239.62C179.363 239.58 179.573 239.539 179.783 239.492C179.967 239.444 180.15 239.411 180.326 239.356C180.38 239.343 180.435 239.316 180.489 239.302L180.496 237.752C180.442 237.772 180.38 237.779 180.333 237.793Z" fill="#B3B3B3"/>
<path d="M178.718 238.152C178.677 238.158 178.643 238.165 178.603 238.165C178.562 238.172 178.521 238.179 178.48 238.185L178.474 239.736C178.514 239.729 178.555 239.736 178.596 239.736C178.636 239.729 178.67 239.722 178.711 239.722C178.86 239.702 179.003 239.661 179.152 239.634L179.159 238.097C179.016 238.118 178.867 238.131 178.718 238.152Z" fill="#ADADAD"/>
<path d="M177.978 238.219L177.971 239.742C178.141 239.736 178.317 239.749 178.48 239.736L178.487 238.185C178.317 238.199 178.148 238.212 177.978 238.219Z" fill="#A8A8A8"/>
<path d="M177.537 238.219L177.53 239.749C177.68 239.756 177.822 239.749 177.965 239.742L177.971 238.219C177.829 238.226 177.686 238.226 177.537 238.219Z" fill="#A3A3A3"/>
<path d="M177.13 238.199L177.123 239.756C177.259 239.769 177.394 239.749 177.53 239.749L177.537 238.219C177.401 238.219 177.265 238.212 177.13 238.199Z" fill="#9E9E9E"/>
<path d="M177.062 238.192L177.055 239.756C177.076 239.756 177.103 239.756 177.123 239.756L177.13 238.199C177.103 238.199 177.083 238.199 177.062 238.192Z" fill="#999999"/>
<path d="M168.274 230.61C168.288 230.996 168.356 231.382 168.519 231.754C169.347 233.602 170.704 235.47 173.004 236.797C173.595 237.136 174.253 237.447 174.979 237.704C175.617 237.935 176.302 238.117 177.055 238.192C177.585 238.239 178.1 238.226 178.602 238.165C178.643 238.158 178.677 238.151 178.718 238.151C179.084 238.104 179.437 238.016 179.783 237.928C179.966 237.88 180.15 237.847 180.326 237.792C180.469 237.745 180.604 237.691 180.747 237.644C181.5 237.38 182.226 237.075 182.891 236.757C183.59 236.418 184.269 236.066 184.9 235.694C185.456 235.369 185.979 235.024 186.427 234.645C186.657 234.441 186.895 234.191 187.119 233.947C187.207 233.852 187.295 233.778 187.37 233.683C187.641 233.352 187.852 233 187.892 232.688C188.164 230.786 186.745 228.89 184.398 227.536C183 226.731 181.276 226.121 179.376 225.81C177.435 225.499 175.318 225.478 173.411 225.857C170.059 226.555 168.193 228.599 168.274 230.61ZM172.936 227.76C173.785 227.374 174.911 227.096 176.01 226.968C176.56 226.9 177.103 226.873 177.605 226.88C177.842 226.88 178.08 226.893 178.297 226.907C179.6 227.029 180.672 227.367 181.486 227.834C184.065 229.317 184.119 232.113 181.147 233.487C181.174 233.453 181.201 233.419 181.229 233.385C181.011 233.5 180.767 233.602 180.509 233.697C180.075 233.859 179.6 234.008 179.125 234.13C178.996 234.164 178.881 234.198 178.752 234.225C178.195 234.347 177.625 234.414 177.049 234.353C176.343 234.272 175.759 234.035 175.25 233.744C175.033 233.622 174.83 233.487 174.64 233.352C173.852 232.783 172.794 231.91 172.122 230.989C171.783 230.529 171.545 230.061 171.477 229.621C171.416 229.181 171.532 228.762 171.905 228.403C172.156 228.166 172.516 227.949 172.936 227.76Z" fill="#DCDCDC"/>
<path d="M147.787 172.162L123.581 158.129L123.568 153.594L147.774 167.628L147.787 172.162Z" fill="#A17332"/>
<path d="M150.527 158.168L126.308 144.122L127.874 143.228L152.093 157.261L150.527 158.168Z" fill="#B78239"/>
<path d="M150.552 166.003L126.334 151.957L126.308 144.122L150.527 158.167L150.552 166.003Z" fill="#A17332"/>
<path d="M153.696 151.781L129.49 137.735L131.056 136.828L155.275 150.874L153.696 151.781Z" fill="#B78239"/>
<path d="M153.696 152.763L129.49 138.73V137.735L153.696 151.781V152.763Z" fill="#A17332"/>
<path d="M155.262 148.518L131.056 134.472L131.889 133.994L156.095 148.039L155.262 148.518Z" fill="#B78239"/>
<path d="M155.275 150.873L131.056 136.828V134.472L155.262 148.518L155.275 150.873Z" fill="#A17332"/>
<path d="M152.093 157.26L127.874 143.227L127.861 139.662L152.08 153.695L152.093 157.26Z" fill="#A17332"/>
<path d="M152.08 153.695L127.861 139.662L129.49 138.73L153.696 152.763L152.08 153.695Z" fill="#B78239"/>
<path d="M156.095 148.039L131.889 133.994L131.877 128.955L156.083 143L156.095 148.039Z" fill="#A17332"/>
<path d="M155.249 143.479L131.031 129.446L131.864 128.955L156.083 143L155.249 143.479Z" fill="#A06C2D"/>
<path d="M155.249 143.479L131.031 129.434V127.985L155.249 142.018V143.479Z" fill="#A17332"/>
<path d="M132.142 181.182L107.924 167.136L123.581 158.129L147.787 172.162L132.142 181.182Z" fill="#B78239"/>
<path d="M131.738 181.409L107.519 167.376L107.923 167.136L132.142 181.182L131.738 181.409Z" fill="#B78239"/>
<path d="M132.129 176.647L107.911 162.601L123.556 153.594L147.774 167.628L132.129 176.647Z" fill="#B78239"/>
<path d="M132.129 176.609L107.911 162.576L126.334 151.957L150.552 166.003L132.129 176.609Z" fill="#B78239"/>
<path d="M131.725 176.874L107.507 162.841L107.911 162.601L132.129 176.647L131.725 176.874Z" fill="#B78239"/>
<path d="M131.725 176.848L107.507 162.803L107.911 162.576L132.129 176.609L131.725 176.848Z" fill="#B78239"/>
<path d="M116.093 190.416L91.8745 176.383L107.519 167.376L131.738 181.409L116.093 190.416Z" fill="#B78239"/>
<path d="M114.477 193.149L90.2712 179.104L90.2585 176.61L114.477 190.643V193.149Z" fill="#A17332"/>
<path d="M116.08 185.88L91.8619 171.847L107.507 162.841L131.725 176.874L116.08 185.88Z" fill="#B78239"/>
<path d="M147.774 167.627L147.787 172.162L132.142 181.182L131.738 181.409L116.093 190.415L116.081 185.88L131.725 176.874L132.129 176.647L147.774 167.627Z" fill="#BB853A"/>
<path d="M116.093 190.416L91.8746 176.383L91.8619 171.848L116.08 185.881L116.093 190.416Z" fill="#A17332"/>
<path d="M132.066 155.371L107.86 141.338L131.031 127.985L155.249 142.018L132.066 155.371Z" fill="#A06C2D"/>
<path d="M113.303 187.442L89.0968 173.409L107.507 162.803L131.725 176.848L113.303 187.442Z" fill="#B78239"/>
<path d="M132.066 155.031L107.86 140.985L137.003 124.206L161.209 138.239L132.066 155.031Z" fill="#B78239"/>
<path d="M131.662 155.61L107.444 141.565L107.861 141.338L132.066 155.371L131.662 155.61Z" fill="#A06C2D"/>
<path d="M131.662 155.258L107.444 141.224L107.861 140.985L132.066 155.031L131.662 155.258Z" fill="#B78239"/>
<path d="M110.26 193.074L86.0537 179.028L86.0411 174.354L110.247 188.4L110.26 193.074Z" fill="#A17332"/>
<path d="M113.303 187.443L89.0969 173.41L89.0716 165.574L113.29 179.608L113.303 187.443Z" fill="#8D5F27"/>
<path d="M111.711 180.515L87.5056 166.481L89.0713 165.574L113.29 179.608L111.711 180.515Z" fill="#B78239"/>
<path d="M111.712 180.514L87.5057 166.481L87.493 162.916L111.699 176.949L111.712 180.514Z" fill="#8D5F27"/>
<path d="M110.083 177.894L85.8641 163.848L87.4929 162.916L111.699 176.949L110.083 177.894Z" fill="#B78239"/>
<path d="M110.083 177.894L85.8641 163.848V162.866L110.083 176.899V177.894Z" fill="#8D5F27"/>
<path d="M107.431 190.012L83.2253 175.979L83.2001 167.363L107.406 181.396L107.431 190.012Z" fill="#A17332"/>
<path d="M108.504 177.806L84.2985 163.773L85.8642 162.866L110.083 176.899L108.504 177.806Z" fill="#B78239"/>
<path d="M108.504 177.806L84.2984 163.773L84.2858 161.417L108.504 175.451V177.806Z" fill="#8D5F27"/>
<path d="M107.671 175.929L83.4651 161.884L84.2858 161.417L108.504 175.451L107.671 175.929Z" fill="#B78239"/>
<path d="M105.752 182.354L81.533 168.321L81.5204 161.808L105.739 175.854L105.752 182.354Z" fill="#A17332"/>
<path d="M107.658 170.89L83.4399 156.857L84.2733 156.379L108.479 170.412L107.658 170.89Z" fill="#A06C2D"/>
<path d="M107.671 175.929L83.4652 161.883L83.4399 156.857L107.658 170.89L107.671 175.929Z" fill="#8D5F27"/>
<path d="M108.479 170.412L84.2733 156.379V154.917L108.479 168.951V170.412Z" fill="#8D5F27"/>
<path d="M108.479 168.95L84.2733 154.917L107.444 141.564L131.662 155.61L108.479 168.95Z" fill="#A06C2D"/>
<path d="M158.027 145.734L161.222 143.895L161.209 138.251L132.066 155.043L131.662 155.282L102.519 172.074L102.532 177.718L105.739 175.878L105.752 182.379L107.406 181.421L107.431 190.038L110.247 188.413L110.26 193.086L114.464 190.655L114.477 193.149L131.738 183.21L132.142 182.971L149.403 173.032L149.391 170.537L153.608 168.106L153.595 163.433L156.411 161.808L156.386 153.191L158.053 152.234L158.027 145.734ZM132.142 181.182L131.738 181.421L116.093 190.428L116.081 185.893L131.725 176.886L132.129 176.647L147.774 167.64L147.787 172.175L132.142 181.182ZM155.275 150.873L153.709 151.78V152.763L152.08 153.695L152.093 157.26L150.527 158.167L150.552 166.002L132.129 176.609L131.725 176.848L113.315 187.455L113.29 179.62L111.724 180.527L111.712 176.962L110.083 177.894V176.911L108.517 177.818L108.504 175.463L107.684 175.941L107.671 170.903L108.492 170.424V168.963L131.675 155.61L132.079 155.371L155.262 142.018V143.479L156.095 143L156.108 148.039L155.275 148.518V150.873Z" fill="#BB853A"/>
<path d="M155.249 142.018V143.479L156.083 143L156.095 148.039L155.262 148.518L155.274 150.873L153.696 151.78V152.763L152.08 153.695L152.092 157.26L150.527 158.167L150.552 166.002L132.129 176.609L131.725 176.848L113.302 187.442L113.29 179.607L111.711 180.514L111.699 176.949L110.083 177.894V176.899L108.504 177.806V175.45L107.671 175.929L107.658 170.89L108.479 170.411V168.95L131.662 155.61L132.066 155.37L155.249 142.018Z" fill="#A36E2E"/>
<path d="M102.532 177.693L78.3133 163.66L78.3007 158.004L102.519 172.049L102.532 177.693Z" fill="#A17332"/>
<path d="M102.519 172.049L78.3007 158.004L107.444 141.224L131.662 155.257L102.519 172.049Z" fill="#B78239"/>
<path d="M139.756 181.446L131.813 176.836L147.206 167.968L155.148 172.578L139.756 181.446Z" fill="#8C5F27"/>
<path d="M139.352 181.673L131.41 177.075L131.814 176.836L139.756 181.446L139.352 181.673Z" fill="#8C5F27"/>
<path d="M155.148 172.578L155.161 177.037L139.769 185.906L139.365 186.132L123.985 195.001L123.972 190.541L139.352 181.673L139.756 181.446L155.148 172.578Z" fill="#AD7531"/>
<path d="M123.985 195.001L116.042 190.39L116.03 185.931L123.972 190.541L123.985 195.001Z" fill="#7F5523"/>
<path d="M123.972 190.542L116.03 185.931L131.409 177.075L139.352 181.673L123.972 190.542Z" fill="#8C5F27"/>
<path d="M162.497 148.82L154.555 144.21L155.376 143.744L163.318 148.342L162.497 148.82Z" fill="#8C5F27"/>
<path d="M139.693 160.523L131.75 155.925L154.555 142.786L162.497 147.384L139.693 160.523Z" fill="#8C5F27"/>
<path d="M139.289 160.749L131.347 156.152L131.751 155.925L139.693 160.523L139.289 160.749Z" fill="#8C5F27"/>
<path d="M121.245 192.079L113.302 187.481L113.277 179.771L121.22 184.369L121.245 192.079Z" fill="#7F5523"/>
<path d="M119.667 185.263L111.737 180.665L111.724 177.151L119.667 181.749V185.263Z" fill="#7F5523"/>
<path d="M118.063 182.668L110.12 178.07V177.1L118.063 181.698V182.668Z" fill="#7F5523"/>
<path d="M116.522 182.58L108.58 177.982V175.677L116.51 180.275L116.522 182.58Z" fill="#7F5523"/>
<path d="M115.702 180.753L107.759 176.143L107.747 171.18L115.676 175.79L115.702 180.753Z" fill="#7F5523"/>
<path d="M115.676 175.79L107.747 171.18L108.567 170.714L116.497 175.312L115.676 175.79Z" fill="#8C5F27"/>
<path d="M116.497 173.888L108.555 169.278L131.346 156.152L139.289 160.75L116.497 173.888Z" fill="#8C5F27"/>
<path d="M116.497 175.312L108.567 170.714L108.555 169.278L116.497 173.888V175.312Z" fill="#7F5523"/>
<path d="M162.497 147.384V148.82L163.318 148.341L163.33 153.304L162.51 153.783L162.522 156.088L160.969 156.983L160.982 157.953L159.378 158.872L159.391 162.387L157.85 163.269L157.876 170.978L139.756 181.421L139.352 181.648L121.245 192.078L121.22 184.369L119.666 185.263V181.748L118.063 182.668V181.698L116.522 182.58L116.51 180.275L115.702 180.753L115.676 175.79L116.497 175.311V173.888L139.289 160.749L139.693 160.522L162.497 147.384Z" fill="#AD7531"/>
<path d="M163.091 139.587L163.104 143.757L109.666 174.544L109.654 170.361L163.091 139.587Z" fill="#F6B500"/>
<path d="M109.666 174.543L75.7755 154.892L75.7629 150.722L109.654 170.361L109.666 174.543Z" fill="#C69200"/>
<path d="M109.654 170.361L75.7629 150.722L129.2 119.935L163.091 139.587L109.654 170.361Z" fill="#D39C00"/>
<path d="M163.722 134.699L163.735 139.007L108.567 170.789L108.555 166.481L163.722 134.699Z" fill="#92B648"/>
<path d="M108.568 170.79L73.5783 150.508L73.5657 146.2L108.555 166.481L108.568 170.79Z" fill="#75923A"/>
<path d="M108.555 166.481L73.5657 146.2L128.733 114.418L163.722 134.699L108.555 166.481Z" fill="#7D9D3E"/>
<path d="M157.106 138.906L157.131 146.591L150.742 150.269L150.717 142.585L157.106 138.906Z" fill="#98BF4C"/>
<path d="M150.742 150.269L147.257 148.253L147.231 140.569L150.716 142.585L150.742 150.269Z" fill="#77953B"/>
<path d="M150.716 142.585L147.231 140.569L153.633 136.891L157.106 138.906L150.716 142.585Z" fill="#74913A"/>
<path d="M136.701 147.964L136.726 154.993L130.879 158.369L130.854 151.34L136.701 147.964Z" fill="#98BF4C"/>
<path d="M130.879 158.369L127.698 156.517L127.672 149.488L130.854 151.34L130.879 158.369Z" fill="#77953B"/>
<path d="M130.854 151.34L127.672 149.488L133.519 146.125L136.701 147.964L130.854 151.34Z" fill="#74913A"/>
<path d="M101.926 164.302L101.913 172.376L95.1957 168.509L95.221 160.434L101.926 164.302Z" fill="#97BD4B"/>
<path d="M101.926 164.302L107.242 161.228L107.229 169.29L101.913 172.377L101.926 164.302Z" fill="#77953B"/>
<path d="M95.221 160.434L100.537 157.348L107.242 161.228L101.926 164.302L95.221 160.434Z" fill="#75933B"/>
<path d="M77.0887 146.389L77.0634 152.474L72 149.564L72.0252 143.467L77.0887 146.389Z" fill="#97BD4B"/>
<path d="M77.0887 146.39L81.104 144.059L81.0788 150.156L77.0634 152.474L77.0887 146.39Z" fill="#77953B"/>
<path d="M72.0253 143.467L76.028 141.149L81.1041 144.059L77.0887 146.389L72.0253 143.467Z" fill="#75933B"/>
<path d="M129.566 111.697L121.611 107.087L122.432 106.608L130.387 111.218L129.566 111.697Z" fill="#95642A"/>
<path d="M128.013 110.261L120.058 105.651L121.611 104.769L129.566 109.379L128.013 110.261Z" fill="#95642A"/>
<path d="M126.41 110.211L118.455 105.6L120.058 104.681L128.013 109.291L126.41 110.211Z" fill="#95642A"/>
<path d="M124.856 107.59L116.901 102.98L118.442 102.098L126.397 106.709L124.856 107.59Z" fill="#95642A"/>
<path d="M122.104 101.443L114.149 96.8324L116.876 95.2578L124.831 99.8683L122.104 101.443Z" fill="#95642A"/>
<path d="M106.674 105.827L98.7186 101.204L114.136 92.3228L122.091 96.9459L106.674 105.827Z" fill="#95642A"/>
<path d="M106.27 106.053L98.3147 101.443L98.7188 101.204L106.674 105.827L106.27 106.053Z" fill="#95642A"/>
<path d="M83.5031 144.638L75.5482 140.028V138.604L83.5031 143.215V144.638Z" fill="#7F5523"/>
<path d="M82.6824 143.681L74.7274 139.07L74.7148 134.094L82.6698 138.705L82.6824 143.681Z" fill="#7F5523"/>
<path d="M82.6698 138.705L74.7148 134.095L75.5355 133.628L83.4905 138.239L82.6698 138.705Z" fill="#95642A"/>
<path d="M85.031 135.027L77.076 130.416V129.434L85.031 134.057V135.027Z" fill="#7F5523"/>
<path d="M85.031 134.057L77.076 129.434L78.6671 128.514L86.622 133.125L85.031 134.057Z" fill="#95642A"/>
<path d="M83.4779 135.921L75.5229 131.31L77.0761 130.416L85.031 135.027L83.4779 135.921Z" fill="#95642A"/>
<path d="M83.4906 138.239L75.5356 133.628L75.5229 131.311L83.4779 135.921L83.4906 138.239Z" fill="#7F5523"/>
<path d="M86.6222 133.124L78.6672 128.514V125.012L86.6095 129.622L86.6222 133.124Z" fill="#7F5523"/>
<path d="M86.6095 129.623L78.6672 125.012L80.2077 124.118L88.1627 128.728L86.6095 129.623Z" fill="#95642A"/>
<path d="M88.1623 128.728L80.2073 124.118L80.1821 116.396L88.1371 121.006L88.1623 128.728Z" fill="#7F5523"/>
<path d="M88.1371 121.006L80.1821 116.396L82.8716 114.846L90.8266 119.457L88.1371 121.006Z" fill="#95642A"/>
<path d="M90.8267 119.457L82.8717 114.846L82.8969 110.324L90.8519 114.934L90.8267 119.457Z" fill="#7F5523"/>
<path d="M90.8519 114.934L82.8969 110.324L98.3144 101.443L106.269 106.053L90.8519 114.934Z" fill="#95642A"/>
<path d="M122.091 96.9458L122.104 101.443L124.831 99.8683L124.857 107.59L126.397 106.708L126.41 110.21L128.013 109.291V110.261L129.566 109.379V111.697L130.387 111.218L130.4 116.194L129.579 116.673L129.592 118.096L106.75 131.247L106.345 131.487L83.5033 144.638V143.215L82.6825 143.681L82.6699 138.705L83.4907 138.239L83.478 135.921L85.0312 135.027V134.057L86.6222 133.124L86.6095 129.622L88.1627 128.728L88.1374 121.006L90.8269 119.457L90.8522 114.934L106.27 106.053L106.674 105.827L122.091 96.9458Z" fill="#AD7531"/>
<path d="M151.701 132.016L127.483 117.983V116.521L151.701 130.567V132.016Z" fill="#A17332"/>
<path d="M151.701 130.567L127.483 116.521L128.316 116.043L152.535 130.088L151.701 130.567Z" fill="#B78239"/>
<path d="M154.454 125.125L130.248 111.08L133.443 109.24L157.649 123.286L154.454 125.125Z" fill="#B78239"/>
<path d="M152.535 130.088L128.316 116.043L128.303 111.004L152.522 125.05L152.535 130.088Z" fill="#A17332"/>
<path d="M151.689 125.528L127.47 111.495L128.304 111.004L152.522 125.05L151.689 125.528Z" fill="#A06C2D"/>
<path d="M151.689 125.528L127.47 111.495L127.458 109.139L151.676 123.172L151.689 125.528Z" fill="#A17332"/>
<path d="M152.775 119.583L128.556 105.537L130.223 104.58L154.441 118.613L152.775 119.583Z" fill="#B78239"/>
<path d="M150.11 124.079L125.892 110.046L127.458 109.139L151.676 123.172L150.11 124.079Z" fill="#A06C2D"/>
<path d="M150.11 124.08L125.892 110.034V109.052L150.098 123.085L150.11 124.08Z" fill="#A17332"/>
<path d="M148.481 124.029L124.263 109.984L125.892 109.052L150.098 123.085L148.481 124.029Z" fill="#A06C2D"/>
<path d="M148.481 124.029L124.263 109.984L124.25 106.419L148.469 120.452L148.481 124.029Z" fill="#A17332"/>
<path d="M146.903 121.359L122.684 107.313L124.25 106.419L148.469 120.452L146.903 121.359Z" fill="#A06C2D"/>
<path d="M149.933 112.579L125.715 98.5454L128.531 96.9204L152.749 110.966L149.933 112.579Z" fill="#B78239"/>
<path d="M128.531 145.369L104.312 131.323L127.483 117.983L151.701 132.016L128.531 145.369Z" fill="#B78239"/>
<path d="M146.903 121.359L122.684 107.313L122.672 99.4778L146.878 113.523L146.903 121.359Z" fill="#A17332"/>
<path d="M128.114 145.595L103.896 131.562L104.312 131.323L128.531 145.369L128.114 145.595Z" fill="#B78239"/>
<path d="M145.703 110.324L121.497 96.2908L125.702 93.8596L149.921 107.893L145.703 110.324Z" fill="#B78239"/>
<path d="M128.468 124.13L104.249 110.084L122.672 99.4778L146.878 113.523L128.468 124.13Z" fill="#A06C2D"/>
<path d="M144.113 115.085L119.894 101.052L119.882 96.5173L144.1 110.55L144.113 115.085Z" fill="#A17332"/>
<path d="M128.468 124.105L104.249 110.059L119.894 101.052L144.113 115.085L128.468 124.105Z" fill="#B78239"/>
<path d="M128.051 124.357L103.845 110.324L104.249 110.084L128.468 124.13L128.051 124.357Z" fill="#A06C2D"/>
<path d="M128.051 124.331L103.845 110.298L104.249 110.059L128.468 124.105L128.051 124.331Z" fill="#B78239"/>
<path d="M128.455 119.57L104.237 105.524L119.881 96.5173L144.1 110.55L128.455 119.57Z" fill="#B78239"/>
<path d="M128.038 119.797L103.832 105.764L104.237 105.524L128.455 119.57L128.038 119.797Z" fill="#B78239"/>
<path d="M104.944 158.948L80.7252 144.915L103.896 131.562L128.114 145.595L104.944 158.948Z" fill="#B78239"/>
<path d="M104.931 158.948L80.7252 144.915V143.467L104.931 157.5V158.948Z" fill="#8D5F27"/>
<path d="M104.098 157.978L79.8918 143.945L80.7252 143.467L104.931 157.5L104.098 157.978Z" fill="#B78239"/>
<path d="M128.442 114.972L104.224 100.939L121.485 91L145.691 105.033L128.442 114.972Z" fill="#B78239"/>
<path d="M128.026 115.211L103.82 101.166L104.224 100.939L128.442 114.972L128.026 115.211Z" fill="#B78239"/>
<path d="M104.085 152.939L79.8667 138.906L80.7001 138.427L104.919 152.461L104.085 152.939Z" fill="#A06C2D"/>
<path d="M104.098 157.978L79.892 143.945L79.8667 138.906L104.085 152.939L104.098 157.978Z" fill="#8D5F27"/>
<path d="M106.484 148.216L82.2657 134.183L83.8946 133.238L108.1 147.284L106.484 148.216Z" fill="#A06C2D"/>
<path d="M106.484 149.198L82.2657 135.165V134.183L106.484 148.216V149.198Z" fill="#8D5F27"/>
<path d="M104.919 152.461L80.7 138.428V136.072L104.906 150.105L104.919 152.461Z" fill="#8D5F27"/>
<path d="M104.906 150.105L80.7 136.072L82.2657 135.165L106.484 149.198L104.906 150.105Z" fill="#A06C2D"/>
<path d="M108.088 143.706L83.882 129.673L85.4477 128.766L109.666 142.799L108.088 143.706Z" fill="#A06C2D"/>
<path d="M108.101 147.283L83.8946 133.238L83.882 129.673L108.088 143.706L108.101 147.283Z" fill="#8D5F27"/>
<path d="M98.9711 162.74L74.7526 148.707L74.74 143.051L98.9585 157.097L98.9711 162.74Z" fill="#A17332"/>
<path d="M98.9585 157.096L74.74 143.051L77.9346 141.212L102.153 155.245L98.9585 157.096Z" fill="#B78239"/>
<path d="M109.641 134.964L85.4351 120.931L103.845 110.324L128.051 124.357L109.641 134.964Z" fill="#A06C2D"/>
<path d="M112.406 133.351L88.2002 119.305L103.845 110.299L128.051 124.332L112.406 133.351Z" fill="#B78239"/>
<path d="M102.153 155.245L77.9346 141.212L77.922 134.712L102.128 148.745L102.153 155.245Z" fill="#A17332"/>
<path d="M102.128 148.744L77.922 134.711L79.5887 133.741L103.795 147.787L102.128 148.744Z" fill="#B78239"/>
<path d="M146.878 113.523L146.903 121.359L148.469 120.452L148.481 124.029L150.098 123.085L150.11 124.08L151.676 123.173L151.689 125.528L152.522 125.05L152.535 130.088L151.701 130.567V132.016L128.518 145.369L128.114 145.595L104.931 158.948V157.5L104.098 157.978L104.085 152.939L104.918 152.461L104.906 150.105L106.484 149.198V148.216L108.1 147.283L108.088 143.706L109.666 142.799L109.641 134.964L128.051 124.357L128.468 124.13L146.878 113.523Z" fill="#A36E2E"/>
<path d="M109.666 142.799L85.4477 128.766L85.4351 120.93L109.641 134.963L109.666 142.799Z" fill="#8D5F27"/>
<path d="M112.406 133.351L88.1876 119.318L88.175 114.783L112.393 128.816L112.406 133.351Z" fill="#A17332"/>
<path d="M112.393 128.816L88.175 114.783L103.832 105.764L128.038 119.797L112.393 128.816Z" fill="#B78239"/>
<path d="M144.1 110.551L144.113 115.085L128.468 124.105L128.051 124.332L112.406 133.351L112.394 128.816L128.038 119.797L128.455 119.57L144.1 110.551Z" fill="#BB853A"/>
<path d="M103.795 147.788L79.5887 133.742L79.5635 125.125L103.769 139.171L103.795 147.788Z" fill="#A17332"/>
<path d="M103.769 139.171L79.5635 125.125L82.3793 123.513L106.585 137.546L103.769 139.171Z" fill="#B78239"/>
<path d="M106.573 132.86L82.3668 118.826L86.5715 116.395L110.79 130.441L106.573 132.86Z" fill="#B78239"/>
<path d="M106.585 137.546L82.3794 123.513L82.3668 118.827L106.573 132.86L106.585 137.546Z" fill="#A17332"/>
<path d="M110.79 130.441L86.5713 116.396L86.5587 111.105L110.777 125.151L110.79 130.441Z" fill="#A17332"/>
<path d="M110.777 125.151L86.5587 111.105L103.82 101.166L128.026 115.212L110.777 125.151Z" fill="#B78239"/>
<path d="M157.649 123.286L154.454 125.125L154.441 118.625L152.775 119.582L152.749 110.966L149.934 112.591L149.921 107.905L145.704 110.336L145.691 105.045L128.43 114.984L128.026 115.224L110.777 125.15L110.79 130.441L106.573 132.872L106.585 137.558L103.769 139.183L103.795 147.8L102.128 148.757L102.141 155.257L98.946 157.096L98.9586 162.74L128.102 145.948L128.506 145.709L157.674 128.929L157.649 123.286ZM128.038 119.797L128.443 119.557L144.087 110.55L144.1 115.085L128.455 124.092L128.051 124.331L112.406 133.338L112.394 128.803L128.038 119.797ZM151.701 132.016L128.518 145.368L128.114 145.608L104.944 158.948V157.499L104.11 157.978L104.098 152.939L104.931 152.461L104.919 150.105L106.484 149.198V148.215L108.113 147.283L108.101 143.706L109.666 142.799L109.641 134.963L128.051 124.357L128.455 124.117L146.878 113.511L146.903 121.346L148.469 120.439L148.482 124.004L150.11 123.072V124.054L151.676 123.147L151.689 125.503L152.522 125.024L152.535 130.063L151.701 130.542V132.016Z" fill="#BB853A"/>
<path d="M158.583 130.542L150.628 125.932L151.449 125.466L159.404 130.076L158.583 130.542Z" fill="#95642A"/>
<path d="M157.03 129.119L149.075 124.508L150.615 123.614L158.57 128.224L157.03 129.119Z" fill="#95642A"/>
<path d="M155.426 129.068L147.471 124.458L149.062 123.526L157.017 128.136L155.426 129.068Z" fill="#95642A"/>
<path d="M153.86 126.448L145.905 121.838L147.458 120.943L155.413 125.554L153.86 126.448Z" fill="#95642A"/>
<path d="M151.12 120.288L143.165 115.678L145.893 114.116L153.835 118.726L151.12 120.288Z" fill="#95642A"/>
<path d="M135.69 124.672L127.735 120.061L143.153 111.18L151.108 115.791L135.69 124.672Z" fill="#95642A"/>
<path d="M135.286 124.899L127.331 120.288L127.735 120.061L135.69 124.672L135.286 124.899Z" fill="#95642A"/>
<path d="M112.52 163.496L104.565 158.873L104.552 157.449L112.507 162.06L112.52 163.496Z" fill="#7F5523"/>
<path d="M111.686 162.538L103.731 157.928L103.719 152.952L111.674 157.563L111.686 162.538Z" fill="#7F5523"/>
<path d="M111.674 157.563L103.719 152.952L104.54 152.473L112.495 157.084L111.674 157.563Z" fill="#95642A"/>
<path d="M114.035 153.872L106.08 149.261V148.291L114.035 152.902V153.872Z" fill="#7F5523"/>
<path d="M114.035 152.902L106.08 148.291L107.684 147.372L115.639 151.982L114.035 152.902Z" fill="#95642A"/>
<path d="M112.495 154.766L104.54 150.156L106.08 149.261L114.035 153.872L112.495 154.766Z" fill="#95642A"/>
<path d="M112.495 157.084L104.54 152.473V150.156L112.495 154.766V157.084Z" fill="#7F5523"/>
<path d="M115.639 151.982L107.684 147.372L107.671 143.857L115.626 148.468L115.639 151.982Z" fill="#7F5523"/>
<path d="M115.626 148.468L107.671 143.857L109.212 142.975L117.167 147.586L115.626 148.468Z" fill="#95642A"/>
<path d="M117.166 147.586L109.211 142.976L109.186 135.254L117.141 139.864L117.166 147.586Z" fill="#7F5523"/>
<path d="M117.141 139.864L109.186 135.253L111.888 133.691L119.843 138.302L117.141 139.864Z" fill="#95642A"/>
<path d="M119.843 138.302L111.888 133.692L111.914 129.169L119.869 133.78L119.843 138.302Z" fill="#7F5523"/>
<path d="M119.869 133.78L111.914 129.169L127.331 120.288L135.286 124.899L119.869 133.78Z" fill="#95642A"/>
<path d="M151.108 115.791L151.121 120.288L153.835 118.726L153.861 126.448L155.414 125.553L155.426 129.068L157.017 128.136L157.03 129.118L158.57 128.224L158.583 130.542L159.404 130.076L159.416 135.039L158.596 135.518V136.941L135.754 150.105L135.349 150.332L112.52 163.496L112.507 162.06L111.687 162.538L111.674 157.562L112.495 157.084V154.766L114.035 153.872V152.902L115.639 151.982L115.626 148.467L117.167 147.586L117.141 139.864L119.844 138.302L119.869 133.779L135.286 124.898L135.69 124.672L151.108 115.791Z" fill="#AD7531"/>
</svg>
