<svg xmlns="http://www.w3.org/2000/svg" viewBox="0 0 194.74 40.32"><defs><style>.cls-1{fill:#0cfba6;}</style></defs><g id="Capa_2" data-name="Capa 2"><g id="Capa_1-2" data-name="Capa 1"><path class="cls-1" d="M20,40.28c-5.86,0-11.72-.07-17.57,0C.52,40.36,0,39.77,0,37.9.08,26.07.06,14.24,0,2.4,0,.81.28-.06,2.18,0,5.77.12,9.37.08,13,0c1.45,0,2.06.26,1.63,1.9-.69,2.58.43,4.6,2.55,6A5.24,5.24,0,0,0,23.23,8c2.23-1.39,3.3-3.48,2.64-6C25.39.2,26,0,27.54,0c3.6.08,7.19.09,10.79,0,1.6,0,2.19.51,2.16,2.11-.08,3.46,0,6.93,0,10.4,0,1.46.1,2.13,2,1.88A5.88,5.88,0,1,1,42.29,26c-1.79-.25-1.85.36-1.84,1.67,0,3.47-.05,6.94,0,10.4,0,1.73-.55,2.29-2.31,2.26C32.12,40.22,26.06,40.28,20,40.28Z"/><path d="M67.15,29,61.89,18.08V29H57.32V11.85h6.09l5.27,10.91V11.85h4.57V29Z"/><path d="M75.33,22.62c0-4.47,3.22-6.72,7-6.72s7,2.25,7,6.72-3.22,6.7-7,6.7S75.33,27.09,75.33,22.62Zm4.88,0c0,2.37.92,3.17,2.13,3.17s2.13-.8,2.13-3.17-.93-3.19-2.13-3.19S80.21,20.25,80.21,22.62Z"/><path d="M104.18,11.45c4.4,0,7.74,2.53,8.42,6.86h-4.87a3.27,3.27,0,0,0-3.39-2.72c-2.15,0-3.66,1.59-3.66,4.78s1.51,4.81,3.66,4.81a3.37,3.37,0,0,0,3.46-2.75h4.85c-.68,4.36-4.07,6.89-8.47,6.89-5.35,0-8.66-3.36-8.66-8.95S98.83,11.45,104.18,11.45Z"/><path d="M113.85,22.62c0-4.47,3.22-6.72,7-6.72s7,2.25,7,6.72-3.22,6.7-7,6.7S113.85,27.09,113.85,22.62Zm4.88,0c0,2.37.92,3.17,2.13,3.17S123,25,123,22.62s-.92-3.19-2.13-3.19S118.73,20.25,118.73,22.62Z"/><path d="M137.54,27.28a4,4,0,0,1-3.66,2,4.16,4.16,0,0,1-3.34-1.25c-.64-.76-1-1.95-1-4.05V16.28h4.73v6.79a3.07,3.07,0,0,0,.36,1.82,1.39,1.39,0,0,0,1.18.5c1.06,0,1.7-.69,1.7-2.58V16.28h4.74V29h-4.74Z"/><path d="M149.82,17.94a4.57,4.57,0,0,1,4-2C157,16,158,17.91,158,21v8h-4.73V22c0-1.06-.14-2.2-1.54-2.2-1.16,0-1.92.71-1.92,2.56V29h-4.73V16.28h4.73Z"/><path d="M161.7,12.78h4.74v3.5h3.24v3h-3.24v5.68c0,.73.3.88.92.88h2.32V29h-3.27c-3.5,0-4.71-.35-4.71-3.83V19.26h-2.55v-3h2.55Z"/><path d="M180.42,20.7a5.61,5.61,0,0,0-1.18-.14c-1.52,0-2.6.48-2.6,2.18V29H171.9V16.28h4.62v2.44a3.59,3.59,0,0,1,3.31-2.54,3.7,3.7,0,0,1,.59,0Z"/><path d="M182,33.15V30h1.44c1,0,1.45-.07,1.66-.73l.07-.17-4.54-12.8h4.71l2.39,8.14,2.36-8.14h4.62l-4.33,12.38c-1.37,3.93-3.6,4.49-6.68,4.49Z"/></g></g></svg>